<?xml version="1.0" encoding="UTF-8"?>
<svg xmlns="http://www.w3.org/2000/svg" xmlns:xlink="http://www.w3.org/1999/xlink" width="604.8pt" height="529.88pt" viewBox="0 0 604.8 529.88" version="1.1">
<defs>
<clipPath id="clip1">
  <path d="M 0 399 L 604.800781 399 L 604.800781 529.878906 L 0 529.878906 Z M 0 399 "/>
</clipPath>
</defs>
<g id="surface1">
<path style=" stroke:none;fill-rule:nonzero;fill:rgb(14.498901%,14.898682%,37.599182%);fill-opacity:1;" d="M 437.058594 301.878906 C 437.058594 376.230469 376.785156 436.511719 302.429688 436.511719 C 228.082031 436.511719 167.804688 376.230469 167.804688 301.878906 C 167.804688 227.527344 228.082031 167.253906 302.429688 167.253906 C 376.785156 167.253906 437.058594 227.527344 437.058594 301.878906 "/>
<path style=" stroke:none;fill-rule:nonzero;fill:rgb(100%,100%,100%);fill-opacity:1;" d="M 424.648438 302.519531 C 424.648438 369.839844 370.070313 424.414063 302.75 424.414063 C 235.429688 424.414063 180.855469 369.839844 180.855469 302.519531 C 180.855469 235.191406 235.429688 180.617188 302.75 180.617188 C 370.070313 180.617188 424.648438 235.191406 424.648438 302.519531 "/>
<path style=" stroke:none;fill-rule:nonzero;fill:rgb(14.498901%,14.898682%,37.599182%);fill-opacity:1;" d="M 199.632813 370.308594 L 405.230469 370.308594 L 301.476563 177.4375 "/>
<path style=" stroke:none;fill-rule:nonzero;fill:rgb(100%,100%,100%);fill-opacity:1;" d="M 307.839844 251.910156 L 307.839844 266.476563 C 307.839844 266.476563 326.222656 268.382813 334.339844 285.808594 C 342.453125 303.230469 337.199219 332.351563 307.605469 338.800781 L 307.605469 352.40625 C 307.605469 352.40625 333.382813 350.496094 346.75 324.71875 C 360.117188 298.933594 346.75 258.355469 307.839844 251.910156 "/>
<path style=" stroke:none;fill-rule:nonzero;fill:rgb(100%,100%,100%);fill-opacity:1;" d="M 294.476563 252.628906 L 294.476563 266.476563 C 294.476563 266.476563 278.484375 268.148438 268.21875 286.046875 C 257.953125 303.945313 267.261719 331.878906 294.953125 339.515625 L 294.953125 353.121094 C 294.953125 353.121094 262.011719 344.285156 254.609375 321.132813 C 247.210938 297.980469 252.464844 262.890625 294.476563 252.628906 "/>
<path style=" stroke:none;fill-rule:nonzero;fill:rgb(97.299194%,92.498779%,10.998535%);fill-opacity:1;" d="M 330.519531 303.113281 C 330.519531 319.394531 317.320313 332.59375 301.039063 332.59375 C 284.757813 332.59375 271.558594 319.394531 271.558594 303.113281 C 271.558594 286.835938 284.757813 273.636719 301.039063 273.636719 C 317.320313 273.636719 330.519531 286.835938 330.519531 303.113281 "/>
<path style=" stroke:none;fill-rule:nonzero;fill:rgb(97.299194%,92.498779%,10.998535%);fill-opacity:1;" d="M 326.222656 201.785156 L 314.289063 230.671875 C 314.289063 230.671875 200.507813 266.15625 226.765625 320.582031 L 222.707031 328.855469 C 222.707031 328.855469 196.847656 313.019531 198.039063 283.183594 C 199.234375 253.34375 253.179688 215.390625 293.042969 196.054688 "/>
<path style="fill:none;stroke-width:10;stroke-linecap:butt;stroke-linejoin:miter;stroke:rgb(14.498901%,14.898682%,37.599182%);stroke-opacity:1;stroke-miterlimit:10;" d="M 3262.226563 3280.948438 L 3142.890625 2992.08125 C 3142.890625 2992.08125 2005.078125 2637.2375 2267.65625 2092.979688 L 2227.070313 2010.245313 C 2227.070313 2010.245313 1968.476563 2168.604688 1980.390625 2466.964063 C 1992.34375 2765.3625 2531.796875 3144.89375 2930.429688 3338.253125 Z M 3262.226563 3280.948438 " transform="matrix(0.1,0,0,-0.1,0,529.88)"/>
<path style=" stroke:none;fill-rule:nonzero;fill:rgb(97.299194%,92.498779%,10.998535%);fill-opacity:1;" d="M 290.894531 381.289063 L 280.152344 411.363281 L 311.421875 415.425781 C 311.421875 415.425781 399.023438 371.027344 404.515625 330.925781 C 410.003906 290.820313 365.289063 273.238281 346.910156 264.171875 L 351.921875 272.765625 C 351.921875 272.765625 381.839844 284.136719 381.839844 313.738281 C 381.839844 343.332031 290.894531 381.289063 290.894531 381.289063 "/>
<path style="fill:none;stroke-width:10;stroke-linecap:butt;stroke-linejoin:miter;stroke:rgb(14.498901%,14.898682%,37.599182%);stroke-opacity:1;stroke-miterlimit:10;" d="M 2908.945313 1485.909375 L 2801.523438 1185.167188 L 3114.21875 1144.542188 C 3114.21875 1144.542188 3990.234375 1588.526563 4045.15625 1989.542188 C 4100.039063 2390.596875 3652.890625 2566.417188 3469.101563 2657.08125 L 3519.21875 2571.14375 C 3519.21875 2571.14375 3818.398438 2457.432813 3818.398438 2161.417188 C 3818.398438 1865.479688 2908.945313 1485.909375 2908.945313 1485.909375 Z M 2908.945313 1485.909375 " transform="matrix(0.1,0,0,-0.1,0,529.88)"/>
<path style=" stroke:none;fill-rule:nonzero;fill:rgb(97.299194%,92.498779%,10.998535%);fill-opacity:1;" d="M 317.390625 4.617188 L 302.75 33.265625 L 289.066406 4.296875 L 289.382813 36.765625 L 263.605469 16.078125 L 277.605469 45.039063 L 247.371094 37.714844 L 272.195313 58.089844 L 241.960938 64.132813 L 272.195313 72.40625 L 246.417969 90.871094 L 277.925781 84.1875 L 263.285156 112.828125 L 288.425781 93.414063 L 287.472656 125.242188 L 302.113281 96.917969 L 315.480469 124.925781 L 315.800781 94.367188 L 340.941406 114.738281 L 326.9375 85.777344 L 358.128906 92.78125 L 332.984375 73.046875 L 364.496094 66.042969 L 333.621094 58.410156 L 360.039063 38.675781 L 327.578125 45.675781 L 342.214844 16.394531 L 316.4375 37.082031 "/>
<path style=" stroke:none;fill-rule:nonzero;fill:rgb(14.498901%,14.898682%,37.599182%);fill-opacity:1;" d="M 289.433594 91.445313 L 288.546875 121.113281 L 302.144531 94.785156 L 314.578125 120.835938 L 314.875 92.40625 L 338.246094 111.339844 L 325.234375 84.425781 L 354.253906 90.9375 L 330.828125 72.554688 L 360.355469 65.992188 L 331.453125 58.84375 L 355.996094 40.511719 L 325.851563 47.015625 L 339.4375 19.839844 L 315.429688 39.105469 L 316.324219 8.792969 L 302.71875 35.410156 L 290.054688 8.605469 L 290.351563 38.75 L 266.277344 19.4375 L 279.328125 46.429688 L 251.171875 39.613281 L 274.339844 58.621094 L 246.070313 64.277344 L 274.363281 72.019531 L 250.644531 89.007813 L 279.671875 82.847656 L 266.050781 109.496094 Z M 286.402344 129.375 L 287.421875 95.382813 L 260.523438 116.160156 L 276.179688 85.519531 L 242.1875 92.730469 L 270.03125 72.796875 L 237.855469 63.988281 L 270.050781 57.554688 L 243.574219 35.824219 L 275.886719 43.648438 L 260.929688 12.714844 L 288.421875 34.773438 L 288.078125 -0.0078125 L 302.785156 31.117188 L 318.460938 0.449219 L 317.441406 35.0625 L 344.996094 12.949219 L 329.304688 44.335938 L 364.082031 36.832031 L 335.789063 57.96875 L 368.632813 66.097656 L 335.144531 73.535156 L 362.003906 94.617188 L 328.644531 87.125 L 343.636719 118.140625 L 316.726563 96.335938 L 316.382813 129.011719 L 302.078125 99.039063 "/>
<path style=" stroke:none;fill-rule:nonzero;fill:rgb(97.299194%,92.498779%,10.998535%);fill-opacity:1;" d="M 241.324219 50.128906 C 241.324219 50.128906 220.320313 95.003906 256.285156 128.746094 C 292.246094 162.476563 391.230469 143.0625 363.21875 51.085938 C 363.21875 51.085938 394.09375 89.277344 361.949219 137.335938 C 329.804688 185.394531 262.964844 169.804688 240.371094 135.109375 C 217.773438 100.417969 233.050781 56.816406 241.324219 50.128906 "/>
<path style=" stroke:none;fill-rule:nonzero;fill:rgb(14.498901%,14.898682%,37.599182%);fill-opacity:1;" d="M 238.300781 55.566406 C 230.53125 69.042969 221.78125 104.835938 241.160156 134.59375 C 253.554688 153.621094 279.023438 166.503906 304.539063 166.660156 L 305.015625 166.660156 C 328.351563 166.664063 348.277344 156.074219 361.164063 136.808594 C 385.890625 99.839844 372.640625 68.484375 365.773438 56.683594 C 377.664063 103.117188 355.628906 125.089844 341 134.191406 C 314.828125 150.464844 275.738281 148.285156 255.636719 129.4375 C 227.25 102.800781 234.03125 68.96875 238.300781 55.566406 M 305.015625 168.550781 L 304.53125 168.550781 C 278.40625 168.390625 252.304688 155.160156 239.578125 135.625 C 216.421875 100.078125 232.6875 55.886719 240.730469 49.394531 L 243.914063 46.824219 L 242.183594 50.53125 C 241.976563 50.972656 221.898438 95.191406 256.933594 128.050781 C 276.457031 146.367188 314.496094 148.441406 340.003906 132.578125 C 354.773438 123.390625 377.316406 100.621094 362.316406 51.359375 L 360.898438 46.710938 L 363.957031 50.488281 C 364.269531 50.878906 394.894531 89.78125 362.734375 137.863281 C 349.488281 157.667969 329.003906 168.550781 305.015625 168.550781 "/>
<path style=" stroke:none;fill-rule:nonzero;fill:rgb(97.299194%,92.498779%,10.998535%);fill-opacity:1;" d="M 46.703125 431.414063 C 46.703125 431.414063 36.441406 428.070313 25.699219 414.707031 C 14.957031 401.339844 8.992188 399.429688 3.019531 403.726563 C -2.945313 408.023438 5.410156 420.195313 9.945313 424.972656 C 14.476563 429.742188 48.136719 467.21875 61.265625 467.9375 C 74.394531 468.652344 134.785156 444.304688 158.894531 445.5 C 158.894531 445.5 154.121094 447.171875 158.65625 462.207031 C 163.1875 477.246094 165.816406 479.871094 164.144531 485.839844 C 162.472656 491.804688 161.996094 510.425781 177.511719 514.960938 C 193.027344 519.496094 247.691406 530.238281 308.558594 528.804688 C 369.425781 527.371094 419.078125 520.449219 430.058594 513.527344 C 441.039063 506.605469 443.425781 491.804688 442.230469 487.511719 C 441.039063 483.214844 443.902344 464.832031 446.769531 458.152344 C 449.628906 451.46875 445.808594 445.257813 445.808594 445.257813 C 445.808594 445.257813 465.863281 445.257813 496.894531 456 C 527.925781 466.746094 545.351563 471.515625 555.136719 463.402344 C 564.921875 455.285156 607.648438 418.761719 603.589844 406.351563 C 599.535156 393.9375 587.359375 403.964844 583.304688 409.453125 C 579.242188 414.945313 565.164063 431.894531 551.796875 430.460938 C 538.425781 429.027344 511.933594 423.058594 469.441406 408.261719 C 426.953125 393.464844 401.652344 415.898438 398.546875 434.28125 C 395.445313 452.660156 394.011719 461.730469 398.3125 462.6875 C 402.605469 463.640625 420.984375 461.015625 420.269531 466.503906 C 419.554688 471.996094 389.242188 483.929688 323.121094 484.648438 C 257 485.359375 208.066406 480.109375 194.222656 474.621094 C 180.375 469.128906 182.285156 463.402344 189.921875 462.449219 C 197.5625 461.488281 208.304688 465.546875 209.019531 458.625 C 209.734375 451.703125 207.109375 415.898438 183.71875 408.261719 C 160.324219 400.621094 126.667969 408.738281 101.605469 418.523438 C 76.542969 428.316406 53.148438 431.414063 46.703125 431.414063 "/>
<g clip-path="url(#clip1)" clip-rule="nonzero">
<path style=" stroke:none;fill-rule:nonzero;fill:rgb(14.498901%,14.898682%,37.599182%);fill-opacity:1;" d="M 157.085938 444.511719 C 157.722656 444.511719 158.339844 444.523438 158.9375 444.558594 L 163.769531 444.792969 L 159.203125 446.394531 C 159.203125 446.394531 155.445313 448.289063 159.558594 461.9375 C 160.964844 466.585938 162.175781 470.023438 163.148438 472.785156 C 165.304688 478.902344 166.289063 481.691406 165.054688 486.09375 C 163.808594 490.539063 162.164063 509.488281 177.777344 514.054688 C 195.214844 519.152344 250.128906 529.234375 308.535156 527.859375 C 373.992188 526.324219 419.738281 518.914063 429.554688 512.726563 C 440.511719 505.820313 442.285156 491.238281 441.316406 487.765625 C 440.070313 483.269531 442.898438 464.777344 445.898438 457.777344 C 448.539063 451.617188 445.039063 445.816406 445.003906 445.753906 L 444.117188 444.3125 L 445.8125 444.3125 C 446.011719 444.3125 466.378906 444.4375 497.203125 455.109375 C 526.371094 465.207031 544.789063 470.75 554.53125 462.675781 C 578.660156 442.671875 605.75 415.992188 602.691406 406.644531 C 601.675781 403.527344 600.0625 401.769531 597.90625 401.421875 C 593.328125 400.675781 586.949219 406.113281 584.0625 410.015625 C 581.222656 413.859375 566.28125 432.9375 551.695313 431.402344 C 543.578125 430.53125 519.28125 426.621094 469.128906 409.152344 C 449.320313 402.253906 430.816406 402.949219 417.023438 411.105469 C 407.5625 416.710938 401.003906 425.429688 399.480469 434.4375 C 396.78125 450.417969 395 460.980469 398.515625 461.757813 C 399.699219 462.03125 402.324219 461.984375 405.101563 461.945313 C 411.269531 461.847656 418.265625 461.753906 420.484375 464.25 C 421.074219 464.914063 421.324219 465.734375 421.207031 466.625 C 420.253906 473.953125 384.777344 484.921875 323.128906 485.589844 C 256.785156 486.308594 207.890625 481.058594 193.871094 475.496094 C 186.5 472.574219 182.667969 469.203125 183.074219 466.003906 C 183.371094 463.679688 185.886719 461.996094 189.804688 461.511719 C 192.332031 461.191406 195.117188 461.402344 197.8125 461.601563 C 203.933594 462.058594 207.703125 462.152344 208.078125 458.527344 C 208.621094 453.289063 206.847656 416.808594 183.425781 409.160156 C 156.269531 400.289063 117.402344 413.371094 101.949219 419.40625 C 77.125 429.097656 53.617188 432.363281 46.703125 432.363281 L 46.410156 432.3125 C 45.980469 432.175781 35.757813 428.734375 24.960938 415.296875 C 13.851563 401.476563 8.546875 400.917969 3.574219 404.492188 C 2.585938 405.203125 2.046875 406.199219 1.917969 407.515625 C 1.472656 412.308594 6.742188 420.230469 10.628906 424.320313 C 11.007813 424.71875 11.585938 425.339844 12.339844 426.152344 C 43.183594 459.382813 56 466.699219 61.316406 466.992188 C 66.734375 467.273438 80.808594 463.078125 97.085938 458.203125 C 118.5625 451.765625 142.78125 444.511719 157.085938 444.511719 M 297.597656 529.878906 C 243.175781 529.878906 193.679688 520.667969 177.246094 515.871094 C 161.691406 511.320313 161.109375 493.167969 163.234375 485.585938 C 164.304688 481.757813 163.503906 479.484375 161.363281 473.414063 C 160.382813 470.632813 159.164063 467.175781 157.75 462.480469 C 154.894531 453.019531 155.628906 448.515625 156.765625 446.40625 C 142.71875 446.503906 118.832031 453.65625 97.632813 460.011719 C 81.183594 464.941406 66.984375 469.210938 61.210938 468.878906 C 52.855469 468.421875 36.417969 454.871094 10.957031 427.441406 C 10.207031 426.636719 9.632813 426.015625 9.257813 425.621094 C 6.488281 422.703125 -0.5625 413.742188 0.0351563 407.34375 C 0.210938 405.46875 1.03125 403.992188 2.46875 402.960938 C 9.3125 398.035156 16.03125 401.160156 26.433594 414.113281 C 36.195313 426.261719 45.636719 430.019531 46.863281 430.46875 C 53.863281 430.421875 76.875 427.167969 101.261719 417.648438 C 116.902344 411.535156 156.277344 398.3125 184.015625 407.359375 C 207.011719 414.871094 210.90625 449.574219 209.960938 458.726563 C 209.378906 464.355469 203.425781 463.910156 197.671875 463.484375 C 195.066406 463.292969 192.378906 463.089844 190.039063 463.386719 C 187.121094 463.75 185.125 464.875 184.949219 466.242188 C 184.734375 467.941406 187.148438 470.796875 194.566406 473.738281 C 208.417969 479.230469 257.015625 484.40625 323.109375 483.699219 C 389.214844 482.984375 418.726563 471.019531 419.332031 466.378906 C 419.378906 466.027344 419.300781 465.765625 419.074219 465.507813 C 417.425781 463.660156 410.023438 463.765625 405.128906 463.839844 C 402.109375 463.882813 399.503906 463.921875 398.105469 463.605469 C 392.835938 462.4375 394.433594 452.972656 397.613281 434.121094 C 399.230469 424.570313 406.125 415.359375 416.0625 409.480469 C 430.34375 401.03125 449.410156 400.28125 469.753906 407.367188 C 519.71875 424.773438 543.84375 428.65625 551.894531 429.523438 C 565.78125 431.011719 580.867188 411.15625 582.542969 408.890625 C 585.570313 404.789063 592.511719 398.625 598.207031 399.550781 C 601.121094 400.027344 603.234375 402.210938 604.488281 406.058594 C 608.703125 418.945313 568.238281 453.761719 555.738281 464.125 C 545.230469 472.84375 526.378906 467.207031 496.585938 456.894531 C 470.925781 448.015625 452.640625 446.507813 447.367188 446.253906 C 448.386719 448.601563 449.832031 453.398438 447.636719 458.523438 C 444.878906 464.957031 442.023438 483.21875 443.140625 487.257813 C 444.496094 492.125 441.851563 507.210938 430.5625 514.328125 C 418.769531 521.761719 366.328125 528.390625 308.578125 529.753906 C 304.902344 529.835938 301.238281 529.878906 297.597656 529.878906 "/>
</g>
<path style=" stroke:none;fill-rule:nonzero;fill:rgb(14.498901%,14.898682%,37.599182%);fill-opacity:1;" d="M 7.710938 406.546875 C 6.929688 406.546875 6.257813 406.683594 5.769531 406.992188 C 5.523438 407.144531 4.773438 407.625 4.921875 409.375 C 5.089844 411.394531 8.125 416.460938 14.355469 421.425781 C 17.996094 424.332031 24.335938 428.40625 32.765625 430.105469 C 27.144531 428.46875 21.097656 425.644531 17.3125 420.773438 L 17.046875 420.4375 L 17.132813 420.011719 C 17.621094 417.535156 18.191406 410.714844 14.960938 408.839844 C 12.695313 407.53125 9.804688 406.546875 7.710938 406.546875 M 40.695313 432.792969 C 27.710938 432.792969 18.089844 426.824219 13.175781 422.910156 C 6.828125 417.847656 3.269531 412.347656 3.035156 409.527344 C 2.835938 407.140625 3.859375 405.960938 4.757813 405.398438 C 7.386719 403.726563 12.382813 405.164063 15.90625 407.207031 C 20.429688 409.820313 19.398438 417.929688 19.066406 419.941406 C 27.207031 429.886719 46.53125 430.464844 46.726563 430.472656 L 46.835938 432.351563 C 44.714844 432.65625 42.664063 432.792969 40.695313 432.792969 "/>
<path style=" stroke:none;fill-rule:nonzero;fill:rgb(14.498901%,14.898682%,37.599182%);fill-opacity:1;" d="M 184.738281 470.457031 C 181.578125 468.929688 153.984375 455.222656 158.015625 445.148438 L 158.246094 444.566406 L 158.871094 444.550781 C 160.828125 444.519531 206.8125 443.785156 208.054688 461.664063 L 206.164063 461.792969 C 205.125 446.773438 165.324219 446.441406 159.589844 446.4375 C 158.003906 453.636719 177.636719 464.917969 185.5625 468.753906 "/>
<path style=" stroke:none;fill-rule:nonzero;fill:rgb(14.498901%,14.898682%,37.599182%);fill-opacity:1;" d="M 419.203125 469.765625 L 418.476563 468.019531 C 418.746094 467.902344 445.035156 456.816406 444.9375 446.222656 C 439.046875 446.355469 405.546875 447.535156 398.933594 456.882813 C 397.808594 458.472656 397.585938 460.191406 398.25 462.140625 L 396.460938 462.753906 C 395.59375 460.226563 395.90625 457.886719 397.390625 455.785156 C 405.167969 444.800781 444.148438 444.324219 445.804688 444.316406 L 446.632813 444.304688 L 446.746094 445.125 C 448.503906 457.40625 420.402344 469.265625 419.203125 469.765625 "/>
<path style=" stroke:none;fill-rule:nonzero;fill:rgb(14.498901%,14.898682%,37.599182%);fill-opacity:1;" d="M 596.644531 406.273438 C 593.6875 406.273438 589.164063 409.527344 587.910156 411.410156 C 586.542969 413.457031 587.363281 417.917969 587.796875 419.460938 L 587.921875 419.921875 L 587.632813 420.300781 C 583.03125 426.269531 574.496094 429.101563 567.101563 430.449219 C 578.75 429.21875 588.917969 423.5 595 416.976563 C 598.816406 412.878906 599.722656 409.859375 599.34375 408.519531 C 598.84375 406.769531 597.867188 406.425781 597.183594 406.320313 C 597.011719 406.289063 596.828125 406.273438 596.644531 406.273438 M 562.476563 432.578125 C 559.464844 432.578125 556.382813 432.28125 553.269531 431.625 L 553.484375 429.753906 C 553.726563 429.757813 577.175781 430.078125 585.851563 419.5 C 585.480469 417.949219 584.523438 413.074219 586.335938 410.363281 C 587.921875 407.984375 593.492188 403.820313 597.476563 404.449219 C 598.753906 404.648438 600.425781 405.425781 601.160156 408 C 601.863281 410.460938 600.078125 414.300781 596.382813 418.265625 C 589.214844 425.960938 576.601563 432.578125 562.476563 432.578125 "/>
<path style=" stroke:none;fill-rule:nonzero;fill:rgb(14.498901%,14.898682%,37.599182%);fill-opacity:1;" d="M 184.078125 136.980469 C 184.078125 136.980469 194.339844 127.070313 194.460938 124.6875 C 194.578125 122.296875 194.339844 114.421875 195.652344 112.75 C 196.96875 111.078125 199.710938 108.453125 199.710938 108.453125 C 199.710938 108.453125 195.179688 104.035156 188.015625 105.234375 C 188.015625 105.234375 180.855469 100.695313 178.585938 100.335938 C 176.320313 99.976563 175.003906 100.816406 172.023438 99.742188 C 169.039063 98.664063 161.878906 94.367188 159.371094 94.605469 C 156.863281 94.847656 150.539063 100.097656 147.675781 100.574219 C 144.8125 101.054688 130.964844 103.320313 129.175781 100.457031 C 129.175781 100.457031 127.625 105.351563 131.085938 108.8125 C 131.085938 108.8125 117.957031 116.804688 111.871094 131.011719 C 111.871094 131.011719 107.335938 133.753906 106.976563 135.1875 C 106.621094 136.621094 106.976563 139.960938 106.019531 141.15625 C 105.066406 142.347656 102.085938 147.121094 101.605469 150.222656 C 101.128906 153.328125 88.953125 160.964844 88.117188 164.546875 C 87.28125 168.125 87.402344 199.757813 85.96875 206.199219 C 84.539063 212.644531 79.765625 234.488281 74.394531 241.644531 C 69.023438 248.808594 46.464844 270.171875 44.675781 284.371094 C 44.675781 284.371094 27.609375 280.792969 30.234375 268.859375 C 32.859375 256.921875 59.832031 225.296875 60.308594 210.617188 C 60.785156 195.933594 49.449219 162.875 36.675781 160.964844 C 23.910156 159.058594 28.203125 172.308594 31.070313 176.359375 C 33.933594 180.417969 47.539063 195.339844 45.390625 205.128906 C 43.242188 214.910156 38.945313 226.007813 28.921875 240.21875 C 18.894531 254.417969 13.046875 262.769531 14.359375 278.046875 C 15.671875 293.324219 32.144531 305.261719 44.078125 305.261719 C 56.015625 305.261719 44.675781 315.882813 44.914063 320.0625 C 45.152344 324.238281 48.496094 325.910156 48.496094 325.910156 C 48.496094 325.910156 45.152344 336.890625 39.542969 341.546875 C 39.542969 341.546875 37.515625 346.199219 39.664063 346.558594 C 41.808594 346.910156 37.992188 348.941406 37.394531 355.03125 C 36.796875 361.121094 37.992188 364.339844 40.738281 366.964844 C 43.480469 369.589844 43.957031 371.023438 43.125 375.199219 C 42.285156 379.375 44.4375 384.152344 47.417969 386.777344 C 50.402344 389.402344 55.058594 391.789063 54.9375 393.9375 C 54.820313 396.085938 53.746094 400.742188 56.96875 400.980469 C 60.191406 401.21875 61.503906 399.789063 63.414063 403.367188 C 65.324219 406.949219 71.410156 410.648438 71.410156 411.960938 C 71.410156 413.273438 71.171875 420.078125 74.511719 420.910156 C 77.855469 421.746094 79.644531 426.039063 87.28125 424.015625 C 94.921875 421.988281 117.835938 413.867188 117.71875 412.320313 C 117.597656 410.769531 113.660156 405.160156 108.40625 404.445313 C 103.15625 403.726563 92.292969 402.175781 92.292969 402.175781 C 92.292969 402.175781 74.511719 375.796875 74.75 359.5625 C 74.992188 343.335938 96.234375 339.28125 102.320313 326.742188 C 102.320313 326.742188 108.644531 337.488281 108.765625 341.785156 C 108.886719 346.078125 110.914063 360.640625 106.019531 365.773438 L 117.71875 366.011719 C 117.71875 366.011719 120.34375 372.339844 123.6875 372.574219 C 127.027344 372.8125 130.246094 369.234375 133.59375 369.234375 C 136.933594 369.234375 137.171875 373.171875 140.515625 373.171875 C 143.855469 373.171875 144.09375 368.636719 146.601563 369.113281 C 149.105469 369.589844 148.867188 372.21875 150.65625 372.097656 C 152.445313 371.980469 154.597656 369.714844 157.34375 371.621094 C 160.085938 373.53125 165.816406 374.605469 167.726563 371.980469 C 169.632813 369.355469 174.527344 359.808594 181.09375 360.519531 C 181.09375 360.519531 173.929688 344.882813 171.066406 331.160156 C 171.066406 331.160156 165.457031 331.757813 164.386719 340.351563 C 163.308594 348.941406 156.984375 351.09375 151.136719 349.894531 C 145.289063 348.703125 133.230469 343.574219 138.246094 331.042969 C 143.261719 318.507813 148.867188 310.632813 147.433594 300.132813 C 146.003906 289.625 141.230469 276.382813 134.308594 269.695313 C 134.308594 269.695313 144.449219 257.042969 148.628906 248.328125 C 152.808594 239.621094 157.820313 225.535156 162.828125 226.253906 C 167.84375 226.96875 173.335938 229.832031 172.140625 235.679688 C 172.140625 235.679688 176.078125 236.875 178.46875 234.964844 C 180.855469 233.054688 185.867188 234.25 185.867188 234.25 C 185.867188 234.25 193.742188 221.597656 198.636719 216.347656 C 198.636719 216.347656 184.671875 208.585938 181.214844 203.933594 C 181.214844 203.933594 193.621094 190.324219 201.621094 191.398438 C 209.617188 192.476563 211.527344 199.636719 216.183594 198.445313 C 216.183594 198.445313 227.640625 188.65625 238.976563 183.042969 C 238.976563 183.042969 233.964844 177.558594 230.265625 177.558594 C 226.566406 177.558594 217.492188 177.320313 210.453125 173.855469 C 203.410156 170.398438 193.863281 165.980469 181.449219 170.398438 C 169.039063 174.808594 162.710938 176.121094 162.710938 176.121094 C 162.710938 176.121094 164.980469 162.398438 167.367188 161.089844 C 169.753906 159.773438 177.632813 157.265625 184.671875 157.507813 C 184.671875 157.507813 186.820313 156.789063 186.820313 149.984375 C 186.820313 143.183594 183.003906 139.003906 183.003906 139.003906 L 180.257813 143.421875 L 177.753906 139.003906 C 177.753906 139.003906 176.320313 141.75 174.171875 142.230469 C 172.023438 142.703125 167.011719 141.035156 167.726563 136.738281 C 168.441406 132.441406 173.8125 128.746094 173.8125 128.746094 L 184.554688 129.578125 C 184.554688 129.578125 185.984375 132.203125 184.078125 136.980469 "/>
<path style=" stroke:none;fill-rule:nonzero;fill:rgb(97.299194%,92.498779%,10.998535%);fill-opacity:1;" d="M 156.984375 100.695313 C 156.984375 100.695313 160.324219 102.726563 160.921875 104.511719 C 161.519531 106.304688 163.308594 109.050781 163.308594 109.050781 C 163.308594 109.050781 165.457031 105.828125 167.484375 105.351563 C 169.515625 104.871094 179.539063 107.738281 180.496094 107.140625 C 181.449219 106.539063 179.183594 110.484375 179.183594 110.484375 C 179.183594 110.484375 185.390625 106.539063 186.34375 106.304688 C 187.300781 106.066406 180.496094 102.246094 178.109375 102.007813 L 180.019531 104.035156 C 180.019531 104.035156 174.648438 103.558594 172.855469 104.152344 C 171.066406 104.753906 168.082031 100.933594 168.082031 100.933594 "/>
<path style=" stroke:none;fill-rule:nonzero;fill:rgb(97.299194%,92.498779%,10.998535%);fill-opacity:1;" d="M 154.835938 98.429688 C 154.835938 98.429688 159.488281 94.964844 160.683594 96.277344 C 161.878906 97.589844 156.269531 99.023438 154.835938 98.429688 "/>
<path style=" stroke:none;fill-rule:nonzero;fill:rgb(97.299194%,92.498779%,10.998535%);fill-opacity:1;" d="M 193.148438 107.140625 C 193.148438 107.140625 196.25 107.617188 197.085938 108.8125 L 194.339844 111.675781 C 194.339844 111.675781 192.671875 109.765625 193.148438 107.140625 "/>
<path style=" stroke:none;fill-rule:nonzero;fill:rgb(97.299194%,92.498779%,10.998535%);fill-opacity:1;" d="M 130.367188 103.082031 C 130.367188 103.082031 128.9375 108.8125 141.347656 108.097656 C 141.347656 108.097656 119.03125 125.160156 119.269531 132.921875 C 119.507813 140.675781 131.5625 139.246094 133.710938 143.902344 C 135.859375 148.558594 134.308594 167.890625 153.878906 164.546875 C 153.878906 164.546875 151.375 160.25 151.492188 157.148438 C 151.613281 154.046875 147.554688 154.878906 143.617188 152.136719 C 139.679688 149.390625 131.921875 142.828125 133.234375 134.113281 C 134.546875 125.398438 142.183594 120.269531 144.210938 113.347656 C 144.210938 113.347656 147.554688 117.644531 143.855469 126.953125 C 140.15625 136.265625 138.125 145.332031 145.40625 148.796875 C 152.6875 152.253906 156.148438 152.136719 157.578125 157.984375 C 159.011719 163.828125 161.640625 166.101563 163.429688 165.386719 C 165.21875 164.667969 164.144531 161.5625 165.816406 158.699219 C 165.816406 158.699219 162.832031 153.6875 158.058594 152.136719 C 153.285156 150.585938 146.480469 146.886719 147.554688 141.15625 C 148.628906 135.425781 150.0625 135.546875 147.675781 133.996094 C 145.289063 132.441406 144.691406 129.816406 144.691406 129.816406 C 144.691406 129.816406 148.507813 131.367188 149.824219 130.65625 C 151.136719 129.9375 148.75 119.789063 152.445313 117.164063 C 152.445313 117.164063 154.714844 122.65625 154 129.9375 C 153.285156 137.21875 157.820313 147.121094 165.695313 150.222656 C 165.695313 150.222656 161.757813 146.167969 162.59375 143.183594 C 162.59375 143.183594 167.246094 147.480469 169.277344 150.824219 C 171.304688 154.164063 180.855469 158.105469 184.078125 155 C 187.300781 151.894531 184.433594 145.09375 184.433594 145.09375 C 184.433594 145.09375 177.035156 144.613281 174.769531 143.421875 C 174.769531 143.421875 167.726563 145.09375 166.292969 137.21875 C 166.292969 137.21875 166.054688 132.203125 173.214844 127.3125 L 171.425781 126.351563 C 171.425781 126.351563 168.558594 129.160156 167.246094 131.1875 C 167.246094 131.1875 168.382813 127.96875 170.289063 125.816406 C 170.289063 125.816406 167.1875 124.085938 166.054688 122.597656 C 166.054688 122.597656 164.800781 122.953125 164.085938 123.847656 C 164.085938 123.847656 164.503906 121.703125 166.652344 119.910156 C 166.652344 119.910156 166.175781 117.164063 166.234375 115.910156 C 166.292969 114.660156 159.96875 117.941406 160.804688 126.894531 C 160.804688 126.894531 156.027344 119.078125 165.039063 113.941406 C 165.039063 113.941406 162.890625 113.46875 161.28125 111.738281 C 159.667969 110.003906 159.011719 109.164063 157.042969 108.929688 C 155.074219 108.691406 155.609375 103.738281 155.609375 103.738281 C 155.609375 103.738281 153.582031 103.265625 151.730469 104.992188 C 149.882813 106.722656 146.660156 103.441406 144.511719 103.382813 C 142.363281 103.320313 132.457031 104.152344 130.367188 103.082031 "/>
<path style=" stroke:none;fill-rule:nonzero;fill:rgb(97.299194%,92.498779%,10.998535%);fill-opacity:1;" d="M 113.539063 139.722656 L 110.835938 145.292969 C 110.835938 145.292969 117.359375 143.542969 120.222656 150.222656 C 123.085938 156.90625 125.476563 167.726563 138.84375 167.414063 C 152.210938 167.09375 157.304688 168.84375 157.304688 168.84375 C 157.304688 168.84375 155.710938 164.867188 148.074219 165.820313 C 140.433594 166.773438 135.5 165.660156 134.226563 160.570313 C 132.957031 155.480469 129.613281 151.335938 128.183594 148.476563 C 126.75 145.613281 124.199219 142.109375 113.539063 139.722656 "/>
<path style=" stroke:none;fill-rule:nonzero;fill:rgb(97.299194%,92.498779%,10.998535%);fill-opacity:1;" d="M 100.96875 154.359375 C 100.96875 154.359375 108.449219 150.222656 113.222656 155.480469 C 117.996094 160.730469 121.816406 173.933594 125.792969 172.820313 C 129.773438 171.703125 136.136719 169.003906 161.4375 172.664063 C 161.4375 172.664063 156.824219 201.464844 164.78125 203.695313 C 164.78125 203.695313 160.960938 177.433594 174.648438 177.914063 C 174.648438 177.914063 177.671875 191.601563 184.992188 191.601563 L 181.015625 176.640625 L 189.289063 170.589844 C 189.289063 170.589844 196.449219 168.683594 205.679688 173.300781 C 214.910156 177.914063 220.957031 179.03125 224.457031 179.03125 C 227.957031 179.03125 232.410156 178.550781 236.867188 182.847656 C 236.867188 182.847656 233.210938 186.195313 231.140625 185.074219 C 229.070313 183.960938 223.980469 181.417969 220.160156 183.324219 C 220.160156 183.324219 227.480469 185.234375 229.546875 187.140625 L 225.730469 189.691406 C 225.730469 189.691406 219.523438 186.507813 215.226563 188.257813 C 215.226563 188.257813 222.230469 189.214844 223.660156 191.285156 L 216.339844 197.007813 C 216.339844 197.007813 213.15625 197.007813 209.65625 192.394531 C 206.15625 187.78125 194.378906 190.492188 190.082031 193.667969 C 185.785156 196.851563 168.441406 217.21875 166.371094 217.699219 C 164.304688 218.179688 158.097656 218.179688 158.097656 208.472656 C 158.097656 198.757813 155.394531 199.878906 155.394531 199.878906 C 155.394531 199.878906 153.003906 207.832031 154.117188 212.921875 C 155.234375 218.019531 156.347656 221.039063 154.597656 221.359375 C 152.847656 221.675781 145.210938 219.925781 139.003906 215.789063 C 132.792969 211.652344 122.449219 213.5625 124.519531 215.789063 C 126.589844 218.019531 133.113281 218.652344 134.703125 219.765625 C 136.296875 220.878906 136.136719 225.652344 140.273438 226.289063 C 144.410156 226.929688 147.753906 228.679688 147.433594 231.226563 C 147.117188 233.769531 142.027344 243.003906 134.703125 241.890625 C 127.382813 240.773438 117.519531 234.570313 117.519531 234.570313 C 117.519531 234.570313 118.632813 245.867188 138.84375 246.980469 C 138.84375 246.980469 137.089844 259.070313 128.816406 262.257813 C 120.542969 265.4375 108.289063 249.207031 105.585938 252.070313 C 102.878906 254.933594 115.769531 264.484375 119.90625 265.28125 C 119.90625 265.28125 116.085938 267.347656 117.519531 267.980469 C 118.949219 268.621094 121.972656 271.484375 120.222656 272.597656 C 118.472656 273.710938 112.265625 274.988281 113.0625 277.847656 C 113.859375 280.714844 122.609375 281.992188 122.609375 281.992188 C 122.609375 281.992188 112.902344 296.46875 115.609375 303.472656 C 115.609375 303.472656 132.636719 271.644531 133.433594 271.324219 C 134.226563 271.007813 140.433594 278.808594 138.683594 282.945313 C 136.933594 287.074219 132.476563 286.285156 132.320313 288.195313 C 132.15625 290.105469 124.839844 300.289063 121.496094 302.519531 C 121.496094 302.519531 132.316406 300.925781 135.023438 292.964844 C 135.023438 292.964844 139.796875 296.308594 135.5 302.992188 C 131.203125 309.679688 131.046875 310.632813 117.679688 317.316406 C 117.679688 317.316406 118.789063 319.546875 124.042969 318.269531 C 129.292969 316.996094 133.433594 314.292969 134.386719 316.363281 C 135.34375 318.429688 129.773438 324.636719 130.25 325.269531 C 130.726563 325.910156 134.386719 328.296875 132.957031 329.726563 C 131.523438 331.160156 115.449219 337.683594 115.449219 337.683594 C 115.449219 337.683594 121.652344 341.660156 124.679688 339.914063 C 127.703125 338.160156 134.226563 334.496094 135.023438 336.730469 C 135.820313 338.960938 127.382813 348.1875 128.496094 350.574219 C 129.613281 352.964844 137.570313 345.324219 139.957031 346.597656 C 142.34375 347.871094 142.664063 356.945313 143.933594 356.785156 C 145.210938 356.617188 150.9375 352.007813 153.480469 352.164063 C 156.027344 352.324219 153.800781 357.101563 155.394531 357.257813 C 156.984375 357.417969 162.394531 355.191406 163.984375 346.4375 C 165.574219 337.683594 167.011719 333.542969 170.351563 332.75 L 171.78125 338 C 171.78125 338 167.484375 341.183594 168.285156 345.644531 C 168.285156 345.644531 169.875 341.980469 172.578125 339.914063 L 174.648438 346.910156 C 174.648438 346.910156 169.875 349.300781 170.351563 353.121094 C 170.351563 353.121094 172.421875 349.300781 175.285156 348.980469 L 180.058594 359.488281 C 180.058594 359.488281 174.964844 358.535156 170.191406 365.53125 C 165.417969 372.535156 164.460938 373.171875 159.847656 371.261719 C 155.234375 369.355469 156.1875 368.875 152.6875 369.828125 C 149.1875 370.785156 147.914063 365.691406 144.410156 367.921875 C 140.910156 370.148438 141.546875 373.492188 138.207031 370.308594 C 134.863281 367.125 133.113281 367.125 127.703125 369.675781 C 122.292969 372.21875 121.816406 370.46875 118.632813 364.898438 L 108.609375 364.097656 C 108.609375 364.097656 109.878906 361.875 110.199219 358.535156 C 110.519531 355.191406 110.675781 343.734375 110.039063 340.546875 C 109.402344 337.367188 103.671875 325.75 103.671875 325.75 C 103.671875 325.75 108.925781 313.976563 107.335938 302.835938 L 104.46875 305.539063 C 104.46875 305.539063 106.855469 317.789063 99.855469 327.820313 C 92.851563 337.847656 75.351563 344.523438 73.757813 355.347656 C 72.164063 366.171875 77.097656 380.808594 91.578125 404.039063 C 91.578125 404.039063 112.425781 403.886719 116.085938 412.640625 C 116.085938 412.640625 111.3125 415.1875 110.199219 414.066406 C 109.085938 412.953125 103.035156 407.863281 100.171875 408.65625 C 100.171875 408.65625 108.449219 414.699219 108.132813 415.820313 C 107.8125 416.933594 97.628906 420.59375 97.148438 418.683594 C 96.671875 416.773438 91.578125 412.320313 89.351563 412.800781 C 89.351563 412.800781 97.46875 418.84375 95.875 420.59375 C 94.285156 422.347656 83.625 424.574219 81.394531 422.820313 C 79.167969 421.074219 74.871094 420.273438 73.914063 418.203125 C 72.960938 416.136719 72.960938 411.839844 72.324219 410.566406 C 71.6875 409.296875 65.640625 404.199219 64.210938 401.652344 C 62.777344 399.109375 58 399.75 57.527344 398.949219 C 57.046875 398.15625 55.296875 396.085938 57.84375 394.335938 C 60.390625 392.585938 58.164063 391.152344 57.527344 389.71875 C 56.890625 388.289063 55.136719 382.878906 55.136719 382.878906 C 55.136719 382.878906 69.78125 389.5625 71.847656 386.699219 C 73.914063 383.832031 66.597656 381.925781 64.527344 381.925781 C 62.457031 381.925781 53.546875 377.152344 52.753906 374.605469 C 52.753906 374.605469 58.796875 376.351563 59.113281 374.445313 C 59.433594 372.535156 53.386719 369.351563 51.160156 369.195313 C 48.933594 369.035156 45.589844 359.007813 50.363281 358.6875 C 55.136719 358.371094 54.976563 372.058594 61.503906 373.171875 C 68.027344 374.285156 68.503906 378.261719 69.460938 375.71875 C 70.414063 373.171875 51 356.304688 50.84375 351.367188 C 50.679688 346.4375 48.617188 338.800781 51 339.433594 C 53.386719 340.074219 64.046875 358.054688 65.960938 357.574219 C 67.871094 357.101563 65.480469 349.144531 65.480469 349.144531 C 65.480469 349.144531 52.433594 335.457031 52.910156 332.914063 C 53.386719 330.367188 56.09375 323.519531 56.09375 323.519531 C 56.09375 323.519531 55.136719 331 60.230469 334.023438 C 65.324219 337.046875 66.277344 341.503906 68.027344 343.253906 C 69.777344 345.003906 71.847656 347.074219 73.4375 346.117188 C 75.027344 345.164063 68.980469 334.34375 66.277344 333.710938 C 63.570313 333.070313 62.140625 327.183594 64.367188 326.382813 C 66.597656 325.589844 65.800781 325.117188 64.210938 322.886719 C 62.617188 320.660156 54.503906 312.539063 55.136719 308.5625 C 55.136719 308.5625 59.117188 313.8125 62.296875 314.289063 C 65.480469 314.769531 77.578125 336.570313 81.871094 334.980469 C 86.167969 333.390625 75.828125 321.132813 71.210938 315.089844 C 66.597656 309.039063 55.136719 303.785156 55.933594 296.628906 C 55.933594 296.628906 57.6875 301.246094 60.390625 301.558594 C 63.09375 301.878906 65.160156 301.878906 67.234375 304.742188 C 69.300781 307.609375 76.621094 316.042969 80.28125 315.5625 C 80.28125 315.5625 80.28125 310.152344 72.484375 303.785156 C 64.6875 297.421875 61.980469 289.785156 59.59375 288.988281 C 59.59375 288.988281 62.777344 288.988281 67.871094 294.242188 C 72.960938 299.492188 75.667969 296.15625 79.011719 300.605469 C 82.351563 305.0625 91.105469 311.113281 91.105469 311.113281 C 91.105469 311.113281 89.03125 301.558594 82.984375 297.421875 C 76.941406 293.285156 64.847656 287.074219 63.730469 277.375 C 63.730469 277.375 73.121094 287.238281 75.984375 286.441406 C 78.851563 285.648438 64.367188 273.390625 68.664063 268.300781 C 68.664063 268.300781 72.484375 274.832031 75.347656 275.621094 C 78.214844 276.414063 81.554688 279.441406 85.214844 284.371094 C 88.875 289.308594 93.171875 295.355469 95.71875 294.242188 C 98.265625 293.125 95.398438 288.988281 92.695313 286.121094 C 89.988281 283.257813 85.691406 279.28125 85.375 274.664063 C 85.054688 270.050781 73.597656 266.074219 74.234375 261.140625 C 74.871094 256.207031 78.691406 260.503906 79.011719 258.753906 C 79.328125 257.007813 81.394531 256.527344 84.417969 258.273438 C 87.441406 260.027344 99.855469 269.101563 100.808594 271.804688 C 101.765625 274.507813 103.195313 279.761719 105.902344 279.441406 C 108.609375 279.121094 107.652344 276.734375 106.855469 274.988281 C 106.0625 273.238281 103.195313 271.328125 104.789063 269.097656 C 106.378906 266.867188 103.195313 260.027344 97.148438 256.847656 C 91.105469 253.664063 81.554688 250.640625 81.554688 248.09375 C 81.554688 245.546875 83.78125 241.726563 86.648438 243.476563 C 89.511719 245.230469 98.742188 253.183594 108.449219 248.253906 C 108.449219 248.253906 90.941406 243.316406 89.671875 235.519531 C 89.671875 235.519531 97.148438 235.839844 101.445313 238.066406 C 105.742188 240.292969 114.8125 241.246094 114.8125 239.019531 C 114.8125 236.792969 94.605469 229.792969 93.808594 225.335938 C 93.808594 225.335938 117.679688 233.609375 124.042969 229.152344 C 124.042969 229.152344 125.636719 226.769531 117.679688 225.65625 C 109.722656 224.535156 96.832031 221.195313 95.71875 217.859375 C 95.71875 217.859375 122.453125 219.925781 122.453125 218.652344 C 122.453125 217.378906 118.316406 213.5625 109.5625 212.128906 C 100.808594 210.695313 91.578125 214.355469 94.921875 201.144531 C 94.921875 201.144531 104.628906 199.710938 106.539063 202.421875 C 108.449219 205.128906 115.929688 212.285156 120.542969 209.425781 C 125.15625 206.558594 109.722656 195.894531 105.105469 193.667969 C 100.492188 191.4375 89.351563 185.546875 95.875 184.441406 C 102.402344 183.324219 107.652344 183.007813 110.199219 185.554688 C 112.746094 188.097656 121.816406 198.757813 123.085938 198.757813 C 124.359375 198.757813 123.882813 185.234375 114.335938 182.054688 C 104.789063 178.867188 97.148438 177.273438 96.832031 174.886719 C 96.511719 172.503906 94.921875 160.890625 99.855469 165.5 C 104.789063 170.117188 113.0625 180.144531 115.769531 180.304688 C 118.472656 180.460938 123.882813 190.324219 128.339844 193.828125 C 132.792969 197.328125 134.070313 200.351563 149.1875 199.398438 C 149.1875 199.398438 139.320313 195.734375 135.660156 190.003906 C 132 184.28125 126.113281 180.460938 121.496094 178.550781 C 116.882813 176.640625 114.8125 177.753906 115.449219 171.550781 C 116.085938 165.339844 112.746094 155 100.96875 154.359375 "/>
<path style=" stroke:none;fill-rule:nonzero;fill:rgb(97.299194%,92.498779%,10.998535%);fill-opacity:1;" d="M 96.355469 159.136719 C 96.355469 159.136719 107.335938 164.707031 110.835938 170.757813 C 110.835938 170.757813 111.628906 157.863281 96.355469 159.136719 "/>
<path style=" stroke:none;fill-rule:nonzero;fill:rgb(97.299194%,92.498779%,10.998535%);fill-opacity:1;" d="M 165.574219 223.269531 C 165.574219 223.269531 182.285156 229.710938 185.867188 231.863281 C 185.867188 231.863281 193.984375 220.164063 196.609375 217.777344 L 191.355469 213.960938 C 191.355469 213.960938 188.015625 223.027344 185.628906 223.75 C 183.238281 224.460938 185.867188 214.195313 183.480469 213.722656 C 181.09375 213.242188 176.078125 225.65625 174.648438 224.703125 C 173.214844 223.75 177.988281 213.476563 177.988281 213.476563 L 172.738281 213.242188 C 172.738281 213.242188 170.351563 219.445313 165.574219 223.269531 "/>
<path style=" stroke:none;fill-rule:nonzero;fill:rgb(97.299194%,92.498779%,10.998535%);fill-opacity:1;" d="M 191.515625 106.625 C 191.515625 106.625 189.128906 111.476563 193.503906 113.546875 C 193.503906 113.546875 192.070313 121.105469 192.710938 124.207031 C 192.710938 124.207031 190.878906 126.996094 190.640625 127.074219 C 190.402344 127.152344 189.605469 124.839844 187.535156 125 C 185.46875 125.167969 181.96875 127.792969 180.855469 127.550781 C 179.742188 127.3125 177.195313 125 177.195313 125 C 177.195313 125 188.890625 119.671875 189.605469 118.238281 C 190.320313 116.8125 189.765625 117.84375 189.765625 117.84375 C 189.765625 117.84375 183.957031 117.445313 175.441406 124.6875 L 174.011719 123.648438 C 174.011719 123.648438 182.605469 117.605469 186.503906 116.332031 L 186.660156 117.285156 C 186.660156 117.285156 188.652344 117.445313 188.8125 116.652344 C 188.96875 115.855469 188.570313 113.550781 188.015625 113.46875 C 187.460938 113.386719 186.027344 113.550781 185.785156 114.183594 C 185.546875 114.820313 186.023438 115.453125 184.910156 115.21875 C 183.800781 114.980469 176.238281 113.78125 167.964844 118.878906 C 167.964844 118.878906 166.609375 115.132813 167.804688 114.261719 C 167.804688 114.261719 179.101563 115.613281 182.523438 113.230469 C 185.945313 110.84375 188.410156 106.546875 188.410156 106.546875 C 188.410156 106.546875 190.800781 106.386719 191.515625 106.625 "/>
<path style=" stroke:none;fill-rule:nonzero;fill:rgb(97.299194%,92.498779%,10.998535%);fill-opacity:1;" d="M 182.046875 116.40625 C 182.046875 116.40625 175.605469 115.378906 168.601563 120.46875 L 172.816406 122.855469 C 172.816406 122.855469 176.796875 119.277344 182.046875 116.40625 "/>
<path style=" stroke:none;fill-rule:nonzero;fill:rgb(100%,100%,100%);fill-opacity:1;" d="M 172.105469 110.125 C 172.105469 110.125 165.894531 110.042969 170.113281 107.816406 C 170.113281 107.816406 165.257813 107.105469 164.859375 109.25 C 164.464844 111.398438 171.226563 112.035156 172.105469 110.125 "/>
<path style=" stroke:none;fill-rule:nonzero;fill:rgb(97.299194%,92.498779%,10.998535%);fill-opacity:1;" d="M 44.078125 285.929688 C 44.078125 285.929688 46.34375 299.53125 49.210938 305.023438 C 49.210938 305.023438 46.585938 303.472656 43.480469 303.589844 C 40.378906 303.710938 37.992188 302.757813 37.992188 302.757813 C 37.992188 302.757813 42.167969 289.746094 42.167969 285.570313 "/>
<path style=" stroke:none;fill-rule:nonzero;fill:rgb(97.299194%,92.498779%,10.998535%);fill-opacity:1;" d="M 35.84375 282.945313 C 35.84375 282.945313 30.351563 291.898438 28.085938 297.507813 C 28.085938 297.507813 22.835938 293.804688 20.921875 290.226563 L 33.574219 281.035156 C 33.574219 281.035156 34.769531 282.34375 35.84375 282.945313 "/>
<path style=" stroke:none;fill-rule:nonzero;fill:rgb(97.299194%,92.498779%,10.998535%);fill-opacity:1;" d="M 29.515625 275.664063 L 15.910156 279.960938 C 15.910156 279.960938 15.078125 272.078125 16.507813 267.429688 L 28.5625 269.21875 C 28.5625 269.21875 27.964844 272.558594 29.515625 275.664063 "/>
<path style=" stroke:none;fill-rule:nonzero;fill:rgb(97.299194%,92.498779%,10.998535%);fill-opacity:1;" d="M 30.949219 262.53125 L 36.441406 253.582031 C 36.441406 253.582031 29.515625 246.183594 26.652344 246.183594 L 18.773438 258.59375 C 18.773438 258.59375 26.652344 258.714844 30.949219 262.53125 "/>
<path style=" stroke:none;fill-rule:nonzero;fill:rgb(97.299194%,92.498779%,10.998535%);fill-opacity:1;" d="M 40.617188 245.824219 L 45.628906 237.949219 C 45.628906 237.949219 40.855469 232.335938 37.035156 231.144531 L 31.070313 239.859375 C 31.070313 239.859375 35.722656 241.644531 40.617188 245.824219 "/>
<path style=" stroke:none;fill-rule:nonzero;fill:rgb(97.299194%,92.498779%,10.998535%);fill-opacity:1;" d="M 50.761719 230.3125 C 50.761719 230.3125 44.792969 224.820313 40.136719 224.820313 L 44.199219 215.628906 C 44.199219 215.628906 51.835938 219.210938 54.820313 222.910156 "/>
<path style=" stroke:none;fill-rule:nonzero;fill:rgb(97.299194%,92.498779%,10.998535%);fill-opacity:1;" d="M 46.464844 208.113281 C 46.464844 208.113281 47.898438 203.929688 46.941406 200.832031 C 46.941406 200.832031 53.625 198.085938 57.566406 200.230469 C 57.566406 200.230469 59.355469 206.914063 58.164063 212.410156 C 58.164063 212.410156 52.910156 208.347656 46.464844 208.113281 "/>
<path style=" stroke:none;fill-rule:nonzero;fill:rgb(97.299194%,92.498779%,10.998535%);fill-opacity:1;" d="M 45.75 195.695313 L 43.363281 191.285156 C 43.363281 191.285156 48.617188 184.714844 53.269531 184.714844 L 56.015625 192.714844 C 56.015625 192.714844 50.640625 192.355469 45.75 195.695313 "/>
<path style=" stroke:none;fill-rule:nonzero;fill:rgb(97.299194%,92.498779%,10.998535%);fill-opacity:1;" d="M 40.019531 185.433594 C 40.019531 185.433594 35.367188 179.464844 35.246094 178.867188 C 35.125 178.273438 42.765625 171.46875 47.300781 172.429688 L 50.761719 178.511719 C 50.761719 178.511719 43.121094 179.824219 40.019531 185.433594 "/>
<path style=" stroke:none;fill-rule:nonzero;fill:rgb(97.299194%,92.498779%,10.998535%);fill-opacity:1;" d="M 32.023438 174.335938 C 32.023438 174.335938 37.515625 167.652344 43.003906 167.171875 C 43.003906 167.171875 37.515625 160.730469 32.023438 163.472656 C 26.53125 166.21875 32.023438 174.335938 32.023438 174.335938 "/>
<path style=" stroke:none;fill-rule:nonzero;fill:rgb(14.498901%,14.898682%,37.599182%);fill-opacity:1;" d="M 419.722656 136.578125 C 419.722656 136.578125 409.347656 126.671875 409.226563 124.285156 C 409.105469 121.894531 409.347656 114.019531 408.019531 112.347656 C 406.695313 110.679688 403.917969 108.050781 403.917969 108.050781 C 403.917969 108.050781 408.5 103.636719 415.738281 104.832031 C 415.738281 104.832031 422.980469 100.296875 425.269531 99.9375 C 427.5625 99.582031 428.890625 100.414063 431.902344 99.339844 C 434.921875 98.269531 442.160156 93.972656 444.691406 94.210938 C 447.226563 94.445313 453.617188 99.703125 456.515625 100.175781 C 459.40625 100.65625 473.402344 102.921875 475.210938 100.054688 C 475.210938 100.054688 476.78125 104.953125 473.28125 108.410156 C 473.28125 108.410156 486.550781 116.40625 492.703125 130.609375 C 492.703125 130.609375 497.289063 133.355469 497.648438 134.785156 C 498.011719 136.21875 497.648438 139.5625 498.613281 140.757813 C 499.578125 141.949219 502.597656 146.722656 503.078125 149.824219 C 503.5625 152.929688 515.867188 160.570313 516.710938 164.148438 C 517.554688 167.730469 517.433594 199.355469 518.882813 205.800781 C 520.328125 212.242188 525.152344 234.089844 530.585938 241.25 C 536.011719 248.40625 558.8125 269.773438 560.621094 283.976563 C 560.621094 283.976563 577.871094 280.398438 575.21875 268.460938 C 572.5625 256.527344 545.300781 224.894531 544.816406 210.21875 C 544.335938 195.535156 555.796875 162.476563 568.703125 160.570313 C 581.613281 158.65625 577.269531 171.902344 574.375 175.964844 C 571.476563 180.023438 557.726563 194.941406 559.898438 204.726563 C 562.070313 214.515625 566.410156 225.613281 576.546875 239.816406 C 586.679688 254.015625 592.589844 262.371094 591.265625 277.648438 C 589.933594 292.929688 573.285156 304.863281 561.226563 304.863281 C 549.160156 304.863281 560.621094 315.484375 560.382813 319.660156 C 560.140625 323.84375 556.761719 325.511719 556.761719 325.511719 C 556.761719 325.511719 560.140625 336.488281 565.808594 341.144531 C 565.808594 341.144531 567.859375 345.800781 565.691406 346.15625 C 563.515625 346.515625 567.378906 348.546875 567.980469 354.632813 C 568.585938 360.71875 567.378906 363.9375 564.601563 366.570313 C 561.828125 369.195313 561.347656 370.621094 562.191406 374.804688 C 563.035156 378.980469 560.863281 383.757813 557.847656 386.382813 C 554.828125 389.007813 550.128906 391.394531 550.246094 393.539063 C 550.367188 395.691406 551.453125 400.347656 548.199219 400.582031 C 544.9375 400.820313 543.613281 399.386719 541.679688 402.964844 C 539.75 406.550781 533.597656 410.25 533.597656 411.5625 C 533.597656 412.878906 533.839844 419.675781 530.464844 420.511719 C 527.085938 421.347656 525.277344 425.644531 517.554688 423.613281 C 509.835938 421.585938 486.671875 413.472656 486.792969 411.921875 C 486.914063 410.367188 490.894531 404.757813 496.203125 404.039063 C 501.511719 403.328125 512.488281 401.773438 512.488281 401.773438 C 512.488281 401.773438 530.464844 375.398438 530.222656 359.167969 C 529.980469 342.9375 508.507813 338.878906 502.355469 326.347656 C 502.355469 326.347656 495.960938 337.085938 495.839844 341.382813 C 495.71875 345.683594 493.671875 360.242188 498.613281 365.371094 L 486.792969 365.609375 C 486.792969 365.609375 484.140625 371.9375 480.761719 372.171875 C 477.382813 372.414063 474.125 368.835938 470.746094 368.835938 C 467.371094 368.835938 467.128906 372.773438 463.753906 372.773438 C 460.375 372.773438 460.136719 368.242188 457.601563 368.714844 C 455.066406 369.195313 455.308594 371.820313 453.496094 371.699219 C 451.691406 371.578125 449.519531 369.3125 446.742188 371.226563 C 443.96875 373.132813 438.179688 374.203125 436.25 371.578125 C 434.320313 368.953125 429.371094 359.40625 422.738281 360.121094 C 422.738281 360.121094 429.976563 344.484375 432.871094 330.765625 C 432.871094 330.765625 438.539063 331.359375 439.628906 339.953125 C 440.710938 348.546875 447.101563 350.691406 453.015625 349.5 C 458.925781 348.308594 471.109375 343.171875 466.042969 330.640625 C 460.976563 318.109375 455.308594 310.234375 456.753906 299.730469 C 458.203125 289.226563 463.027344 275.980469 470.023438 269.296875 C 470.023438 269.296875 459.773438 256.648438 455.546875 247.933594 C 451.328125 239.21875 446.261719 225.136719 441.191406 225.855469 C 436.128906 226.566406 430.578125 229.433594 431.785156 235.28125 C 431.785156 235.28125 427.804688 236.472656 425.390625 234.5625 C 422.980469 232.65625 417.910156 233.847656 417.910156 233.847656 C 417.910156 233.847656 409.949219 221.195313 405.003906 215.949219 C 405.003906 215.949219 419.117188 208.191406 422.613281 203.535156 C 422.613281 203.535156 410.070313 189.929688 401.988281 191.003906 C 393.90625 192.078125 391.972656 199.238281 387.269531 198.039063 C 387.269531 198.039063 375.6875 188.257813 364.230469 182.648438 C 364.230469 182.648438 369.296875 177.15625 373.035156 177.15625 C 376.773438 177.15625 385.941406 176.917969 393.0625 173.460938 C 400.175781 169.996094 409.828125 165.582031 422.375 169.996094 C 434.921875 174.414063 441.316406 175.726563 441.316406 175.726563 C 441.316406 175.726563 439.023438 161.996094 436.609375 160.6875 C 434.195313 159.371094 426.234375 156.867188 419.117188 157.105469 C 419.117188 157.105469 416.945313 156.390625 416.945313 149.589844 C 416.945313 142.789063 420.804688 138.609375 420.804688 138.609375 L 423.582031 143.023438 L 426.113281 138.609375 C 426.113281 138.609375 427.5625 141.355469 429.734375 141.828125 C 431.902344 142.308594 436.972656 140.636719 436.25 136.339844 C 435.523438 132.042969 430.097656 128.34375 430.097656 128.34375 L 419.238281 129.175781 C 419.238281 129.175781 417.792969 131.800781 419.722656 136.578125 "/>
<path style=" stroke:none;fill-rule:nonzero;fill:rgb(97.299194%,92.498779%,10.998535%);fill-opacity:1;" d="M 447.105469 100.296875 C 447.105469 100.296875 443.726563 102.328125 443.121094 104.113281 C 442.519531 105.90625 440.710938 108.648438 440.710938 108.648438 C 440.710938 108.648438 438.539063 105.425781 436.488281 104.953125 C 434.4375 104.472656 424.304688 107.335938 423.339844 106.738281 C 422.371094 106.144531 424.664063 110.082031 424.664063 110.082031 C 424.664063 110.082031 418.394531 106.144531 417.429688 105.90625 C 416.464844 105.671875 423.339844 101.847656 425.753906 101.609375 L 423.824219 103.636719 C 423.824219 103.636719 429.25 103.160156 431.058594 103.757813 C 432.867188 104.351563 435.886719 100.535156 435.886719 100.535156 "/>
<path style=" stroke:none;fill-rule:nonzero;fill:rgb(97.299194%,92.498779%,10.998535%);fill-opacity:1;" d="M 449.277344 98.03125 C 449.277344 98.03125 444.570313 94.566406 443.363281 95.878906 C 442.160156 97.191406 447.828125 98.628906 449.277344 98.03125 "/>
<path style=" stroke:none;fill-rule:nonzero;fill:rgb(97.299194%,92.498779%,10.998535%);fill-opacity:1;" d="M 410.554688 106.738281 C 410.554688 106.738281 407.414063 107.21875 406.570313 108.410156 L 409.347656 111.277344 C 409.347656 111.277344 411.035156 109.363281 410.554688 106.738281 "/>
<path style=" stroke:none;fill-rule:nonzero;fill:rgb(97.299194%,92.498779%,10.998535%);fill-opacity:1;" d="M 474.007813 102.6875 C 474.007813 102.6875 475.453125 108.410156 462.90625 107.695313 C 462.90625 107.695313 485.464844 124.765625 485.226563 132.519531 C 484.984375 140.277344 472.800781 138.84375 470.628906 143.5 C 468.457031 148.15625 470.023438 167.492188 450.242188 164.148438 C 450.242188 164.148438 452.773438 159.851563 452.65625 156.746094 C 452.535156 153.644531 456.636719 154.480469 460.617188 151.734375 C 464.597656 148.992188 472.4375 142.425781 471.109375 133.714844 C 469.78125 125 462.0625 119.867188 460.015625 112.949219 C 460.015625 112.949219 456.636719 117.246094 460.375 126.550781 C 464.113281 135.859375 466.164063 144.933594 458.804688 148.390625 C 451.445313 151.855469 447.949219 151.734375 446.503906 157.585938 C 445.054688 163.433594 442.402344 165.699219 440.589844 164.980469 C 438.78125 164.269531 439.867188 161.164063 438.179688 158.304688 C 438.179688 158.304688 441.191406 153.289063 446.019531 151.734375 C 450.84375 150.183594 457.722656 146.484375 456.636719 140.757813 C 455.546875 135.027344 454.101563 135.144531 456.515625 133.59375 C 458.925781 132.042969 459.53125 129.417969 459.53125 129.417969 C 459.53125 129.417969 455.667969 130.96875 454.34375 130.253906 C 453.015625 129.539063 455.425781 119.390625 451.6875 116.765625 C 451.6875 116.765625 449.394531 122.261719 450.121094 129.539063 C 450.84375 136.816406 446.261719 146.722656 438.300781 149.824219 C 438.300781 149.824219 442.277344 145.773438 441.433594 142.789063 C 441.433594 142.789063 436.730469 147.078125 434.679688 150.421875 C 432.628906 153.765625 422.980469 157.703125 419.722656 154.601563 C 416.464844 151.496094 419.355469 144.695313 419.355469 144.695313 C 419.355469 144.695313 426.839844 144.21875 429.128906 143.023438 C 429.128906 143.023438 436.25 144.695313 437.695313 136.816406 C 437.695313 136.816406 437.9375 131.800781 430.699219 126.910156 L 432.507813 125.953125 C 432.507813 125.953125 435.402344 128.761719 436.730469 130.785156 C 436.730469 130.785156 435.585938 127.566406 433.65625 125.421875 C 433.65625 125.421875 436.789063 123.6875 437.9375 122.199219 C 437.9375 122.199219 439.203125 122.550781 439.925781 123.449219 C 439.925781 123.449219 439.503906 121.300781 437.332031 119.511719 C 437.332031 119.511719 437.816406 116.765625 437.757813 115.515625 C 437.695313 114.261719 444.089844 117.542969 443.246094 126.496094 C 443.246094 126.496094 448.066406 118.675781 438.964844 113.546875 C 438.964844 113.546875 441.132813 113.066406 442.761719 111.335938 C 444.390625 109.609375 445.054688 108.769531 447.042969 108.53125 C 449.035156 108.296875 448.492188 103.34375 448.492188 103.34375 C 448.492188 103.34375 450.542969 102.863281 452.414063 104.59375 C 454.28125 106.320313 457.539063 103.039063 459.710938 102.984375 C 461.882813 102.921875 471.894531 103.757813 474.007813 102.6875 "/>
<path style=" stroke:none;fill-rule:nonzero;fill:rgb(97.299194%,92.498779%,10.998535%);fill-opacity:1;" d="M 491.015625 139.324219 L 493.75 144.894531 C 493.75 144.894531 487.15625 143.140625 484.257813 149.824219 C 481.363281 156.511719 478.953125 167.332031 465.441406 167.011719 C 451.929688 166.691406 446.78125 168.445313 446.78125 168.445313 C 446.78125 168.445313 448.390625 164.46875 456.113281 165.425781 C 463.832031 166.378906 468.820313 165.265625 470.105469 160.171875 C 471.394531 155.074219 474.773438 150.941406 476.21875 148.078125 C 477.664063 145.210938 480.238281 141.710938 491.015625 139.324219 "/>
<path style=" stroke:none;fill-rule:nonzero;fill:rgb(97.299194%,92.498779%,10.998535%);fill-opacity:1;" d="M 503.722656 153.960938 C 503.722656 153.960938 496.164063 149.824219 491.335938 155.074219 C 486.511719 160.324219 482.648438 173.535156 478.628906 172.421875 C 474.609375 171.308594 468.175781 168.605469 442.601563 172.261719 C 442.601563 172.261719 447.265625 201.070313 439.222656 203.296875 C 439.222656 203.296875 443.085938 177.039063 429.25 177.519531 C 429.25 177.519531 426.191406 191.203125 418.796875 191.203125 L 422.816406 176.242188 L 414.453125 170.195313 C 414.453125 170.195313 407.214844 168.285156 397.886719 172.902344 C 388.554688 177.519531 382.445313 178.628906 378.90625 178.628906 C 375.367188 178.628906 370.863281 178.152344 366.359375 182.449219 C 366.359375 182.449219 370.058594 185.789063 372.148438 184.679688 C 374.242188 183.5625 379.390625 181.015625 383.246094 182.921875 C 383.246094 182.921875 375.851563 184.832031 373.757813 186.746094 L 377.621094 189.289063 C 377.621094 189.289063 383.890625 186.105469 388.234375 187.859375 C 388.234375 187.859375 381.15625 188.8125 379.710938 190.882813 L 387.109375 196.613281 C 387.109375 196.613281 390.324219 196.613281 393.863281 191.996094 C 397.402344 187.378906 409.308594 190.089844 413.648438 193.269531 C 417.992188 196.453125 435.523438 216.820313 437.613281 217.296875 C 439.703125 217.773438 445.980469 217.773438 445.980469 208.070313 C 445.980469 198.363281 448.710938 199.476563 448.710938 199.476563 C 448.710938 199.476563 451.128906 207.429688 450 212.523438 C 448.871094 217.617188 447.746094 220.644531 449.519531 220.957031 C 451.285156 221.277344 459.007813 219.523438 465.28125 215.386719 C 471.554688 211.257813 482.011719 213.160156 479.917969 215.386719 C 477.824219 217.617188 471.230469 218.253906 469.625 219.367188 C 468.015625 220.484375 468.175781 225.253906 463.992188 225.894531 C 459.8125 226.527344 456.433594 228.28125 456.753906 230.824219 C 457.078125 233.371094 462.222656 242.601563 469.625 241.484375 C 477.023438 240.371094 486.996094 234.167969 486.996094 234.167969 C 486.996094 234.167969 485.867188 245.46875 465.441406 246.582031 C 465.441406 246.582031 467.210938 258.671875 475.574219 261.855469 C 483.9375 265.035156 496.324219 248.804688 499.058594 251.671875 C 501.789063 254.535156 488.765625 264.085938 484.578125 264.882813 C 484.578125 264.882813 488.441406 266.945313 486.996094 267.585938 C 485.546875 268.226563 482.492188 271.085938 484.257813 272.199219 C 486.027344 273.316406 492.300781 274.585938 491.496094 277.449219 C 490.691406 280.3125 481.847656 281.589844 481.847656 281.589844 C 481.847656 281.589844 491.660156 296.070313 488.921875 303.070313 C 488.921875 303.070313 471.714844 271.242188 470.910156 270.929688 C 470.105469 270.605469 463.832031 278.40625 465.601563 282.542969 C 467.371094 286.679688 471.875 285.882813 472.035156 287.792969 C 472.199219 289.707031 479.59375 299.890625 482.972656 302.117188 C 482.972656 302.117188 472.035156 300.527344 469.300781 292.570313 C 469.300781 292.570313 464.476563 295.910156 468.816406 302.597656 C 473.160156 309.28125 473.320313 310.234375 486.835938 316.917969 C 486.835938 316.917969 485.710938 319.148438 480.398438 317.867188 C 475.089844 316.601563 470.910156 313.898438 469.945313 315.960938 C 468.980469 318.027344 474.609375 324.234375 474.128906 324.871094 C 473.644531 325.511719 469.945313 327.894531 471.394531 329.328125 C 472.839844 330.765625 489.085938 337.28125 489.085938 337.28125 C 489.085938 337.28125 482.8125 341.265625 479.757813 339.511719 C 476.703125 337.761719 470.105469 334.101563 469.300781 336.328125 C 468.496094 338.558594 477.023438 347.789063 475.894531 350.179688 C 474.769531 352.566406 466.726563 344.921875 464.3125 346.195313 C 461.902344 347.46875 461.578125 356.542969 460.292969 356.382813 C 459.007813 356.222656 453.214844 351.605469 450.644531 351.765625 C 448.066406 351.925781 450.320313 356.703125 448.710938 356.863281 C 447.105469 357.015625 441.632813 354.789063 440.023438 346.039063 C 438.421875 337.289063 436.972656 333.144531 433.59375 332.351563 L 432.148438 337.601563 C 432.148438 337.601563 436.488281 340.785156 435.683594 345.242188 C 435.683594 345.242188 434.078125 341.578125 431.339844 339.511719 L 429.25 346.515625 C 429.25 346.515625 434.078125 348.902344 433.59375 352.722656 C 433.59375 352.722656 431.503906 348.898438 428.605469 348.585938 L 423.78125 359.085938 C 423.78125 359.085938 428.929688 358.128906 433.753906 365.136719 C 438.578125 372.140625 439.546875 372.773438 444.210938 370.867188 C 448.871094 368.953125 447.910156 368.476563 451.445313 369.433594 C 454.988281 370.386719 456.273438 365.289063 459.8125 367.523438 C 463.351563 369.75 462.707031 373.09375 466.085938 369.90625 C 469.460938 366.722656 471.230469 366.730469 476.703125 369.273438 C 482.167969 371.820313 482.648438 370.070313 485.867188 364.5 L 496.003906 363.699219 C 496.003906 363.699219 494.714844 361.472656 494.394531 358.128906 C 494.074219 354.789063 493.910156 343.335938 494.554688 340.148438 C 495.199219 336.96875 500.988281 325.351563 500.988281 325.351563 C 500.988281 325.351563 495.679688 313.578125 497.289063 302.4375 L 500.183594 305.140625 C 500.183594 305.140625 497.769531 317.394531 504.847656 327.421875 C 511.925781 337.441406 529.621094 344.128906 531.226563 354.949219 C 532.835938 365.769531 527.847656 380.40625 513.214844 403.644531 C 513.214844 403.644531 492.144531 403.484375 488.441406 412.238281 C 488.441406 412.238281 493.269531 414.785156 494.394531 413.671875 C 495.519531 412.558594 501.632813 407.460938 504.527344 408.261719 C 504.527344 408.261719 496.164063 414.304688 496.480469 415.417969 C 496.808594 416.535156 507.101563 420.195313 507.582031 418.285156 C 508.0625 416.371094 513.214844 411.921875 515.464844 412.394531 C 515.464844 412.394531 507.261719 418.441406 508.871094 420.195313 C 510.476563 421.941406 521.253906 424.179688 523.503906 422.421875 C 525.761719 420.667969 530.101563 419.875 531.066406 417.808594 C 532.03125 415.738281 532.03125 411.441406 532.675781 410.167969 C 533.316406 408.898438 539.429688 403.804688 540.878906 401.253906 C 542.328125 398.710938 547.152344 399.347656 547.628906 398.554688 C 548.113281 397.753906 549.886719 395.691406 547.308594 393.9375 C 544.738281 392.1875 546.988281 390.753906 547.628906 389.320313 C 548.277344 387.886719 550.046875 382.480469 550.046875 382.480469 C 550.046875 382.480469 535.246094 389.164063 533.15625 386.296875 C 531.066406 383.433594 538.464844 381.519531 540.558594 381.519531 C 542.644531 381.519531 551.652344 376.75 552.460938 374.203125 C 552.460938 374.203125 546.347656 375.957031 546.023438 374.042969 C 545.703125 372.132813 551.816406 368.953125 554.066406 368.789063 C 556.320313 368.632813 559.695313 358.605469 554.871094 358.289063 C 550.046875 357.972656 550.210938 371.660156 543.613281 372.773438 C 537.019531 373.890625 536.535156 377.863281 535.570313 375.316406 C 534.601563 372.773438 554.230469 355.902344 554.390625 350.972656 C 554.546875 346.039063 556.640625 338.394531 554.230469 339.035156 C 551.816406 339.675781 541.039063 357.65625 539.109375 357.175781 C 537.175781 356.703125 539.589844 348.742188 539.589844 348.742188 C 539.589844 348.742188 552.78125 335.058594 552.296875 332.511719 C 551.816406 329.964844 549.082031 323.125 549.082031 323.125 C 549.082031 323.125 550.046875 330.601563 544.894531 333.625 C 539.75 336.648438 538.785156 341.105469 537.019531 342.851563 C 535.246094 344.605469 533.15625 346.675781 531.550781 345.722656 C 529.9375 344.765625 536.050781 333.945313 538.789063 333.308594 C 541.519531 332.671875 542.96875 326.785156 540.714844 325.988281 C 538.464844 325.195313 539.269531 324.71875 540.878906 322.484375 C 542.488281 320.257813 550.6875 312.144531 550.046875 308.160156 C 550.046875 308.160156 546.023438 313.410156 542.808594 313.890625 C 539.589844 314.371094 527.367188 336.175781 523.023438 334.578125 C 518.683594 332.988281 529.136719 320.738281 533.800781 314.691406 C 538.464844 308.640625 550.046875 303.390625 549.242188 296.226563 C 549.242188 296.226563 547.472656 300.84375 544.738281 301.160156 C 542.003906 301.476563 539.914063 301.476563 537.824219 304.34375 C 535.730469 307.207031 528.332031 315.644531 524.628906 315.164063 C 524.628906 315.164063 524.632813 309.753906 532.515625 303.390625 C 540.394531 297.023438 543.128906 289.386719 545.539063 288.585938 C 545.539063 288.585938 542.328125 288.585938 537.175781 293.84375 C 532.03125 299.09375 529.296875 295.75 525.921875 300.210938 C 522.539063 304.664063 513.691406 310.710938 513.691406 310.710938 C 513.691406 310.710938 515.785156 301.160156 521.898438 297.023438 C 528.011719 292.890625 540.234375 286.679688 541.363281 276.972656 C 541.363281 276.972656 531.871094 286.839844 528.972656 286.042969 C 526.078125 285.25 540.714844 272.996094 536.375 267.90625 C 536.375 267.90625 532.515625 274.429688 529.621094 275.222656 C 526.722656 276.015625 523.347656 279.046875 519.644531 283.976563 C 515.945313 288.90625 511.605469 294.953125 509.03125 293.84375 C 506.457031 292.730469 509.351563 288.585938 512.085938 285.726563 C 514.820313 282.863281 519.160156 278.886719 519.488281 274.269531 C 519.804688 269.652344 531.386719 265.675781 530.746094 260.742188 C 530.101563 255.808594 526.242188 260.105469 525.921875 258.355469 C 525.597656 256.601563 523.503906 256.128906 520.449219 257.878906 C 517.394531 259.632813 504.847656 268.699219 503.882813 271.40625 C 502.914063 274.109375 501.472656 279.359375 498.738281 279.046875 C 496.003906 278.726563 496.964844 276.335938 497.769531 274.585938 C 498.574219 272.835938 501.46875 270.929688 499.859375 268.699219 C 498.253906 266.472656 501.46875 259.632813 507.582031 256.445313 C 513.691406 253.261719 523.347656 250.238281 523.347656 247.691406 C 523.347656 245.148438 521.097656 241.324219 518.199219 243.078125 C 515.300781 244.828125 505.976563 252.78125 496.164063 247.851563 C 496.164063 247.851563 513.855469 242.917969 515.140625 235.121094 C 515.140625 235.121094 507.582031 235.441406 503.238281 237.667969 C 498.898438 239.898438 489.730469 240.851563 489.730469 238.621094 C 489.730469 236.394531 510.15625 229.390625 510.960938 224.933594 C 510.960938 224.933594 486.835938 233.210938 480.398438 228.757813 C 480.398438 228.757813 478.789063 226.367188 486.835938 225.253906 C 494.875 224.140625 507.90625 220.796875 509.03125 217.453125 C 509.03125 217.453125 482.007813 219.53125 482.007813 218.253906 C 482.007813 216.980469 486.1875 213.160156 495.035156 211.730469 C 503.882813 210.296875 513.214844 213.953125 509.835938 200.75 C 509.835938 200.75 500.023438 199.316406 498.09375 202.023438 C 496.164063 204.726563 488.605469 211.890625 483.9375 209.023438 C 479.273438 206.160156 494.875 195.496094 499.539063 193.269531 C 504.203125 191.042969 515.464844 185.152344 508.871094 184.035156 C 502.273438 182.921875 496.964844 182.609375 494.394531 185.152344 C 491.820313 187.699219 482.652344 198.363281 481.367188 198.363281 C 480.078125 198.363281 480.558594 184.832031 490.210938 181.65625 C 499.859375 178.46875 507.582031 176.878906 507.90625 174.492188 C 508.226563 172.101563 509.835938 160.488281 504.847656 165.101563 C 499.859375 169.714844 491.496094 179.746094 488.765625 179.902344 C 486.027344 180.0625 480.5625 189.929688 476.058594 193.429688 C 471.554688 196.929688 470.265625 199.953125 454.988281 199 C 454.988281 199 464.957031 195.339844 468.65625 189.609375 C 472.359375 183.882813 478.308594 180.0625 482.972656 178.152344 C 487.640625 176.242188 489.730469 177.351563 489.085938 171.148438 C 488.441406 164.945313 491.820313 154.597656 503.722656 153.960938 "/>
<path style=" stroke:none;fill-rule:nonzero;fill:rgb(97.299194%,92.498779%,10.998535%);fill-opacity:1;" d="M 508.386719 158.738281 C 508.386719 158.738281 497.289063 164.308594 493.75 170.355469 C 493.75 170.355469 492.949219 157.464844 508.386719 158.738281 "/>
<path style=" stroke:none;fill-rule:nonzero;fill:rgb(97.299194%,92.498779%,10.998535%);fill-opacity:1;" d="M 438.421875 222.871094 C 438.421875 222.871094 421.53125 229.3125 417.910156 231.464844 C 417.910156 231.464844 409.710938 219.765625 407.054688 217.378906 L 412.363281 213.5625 C 412.363281 213.5625 415.738281 222.628906 418.152344 223.347656 C 420.566406 224.0625 417.910156 213.800781 420.324219 213.320313 C 422.738281 212.84375 427.804688 225.253906 429.25 224.300781 C 430.699219 223.347656 425.875 213.082031 425.875 213.082031 L 431.179688 212.84375 C 431.179688 212.84375 433.59375 219.050781 438.421875 222.871094 "/>
<path style=" stroke:none;fill-rule:nonzero;fill:rgb(97.299194%,92.498779%,10.998535%);fill-opacity:1;" d="M 412.199219 106.226563 C 412.199219 106.226563 414.613281 111.074219 410.1875 113.148438 C 410.1875 113.148438 411.636719 120.703125 410.992188 123.808594 C 410.992188 123.808594 412.84375 126.59375 413.085938 126.671875 C 413.328125 126.753906 414.132813 124.445313 416.222656 124.605469 C 418.3125 124.765625 421.855469 127.390625 422.980469 127.152344 C 424.101563 126.914063 426.675781 124.605469 426.675781 124.605469 C 426.675781 124.605469 414.855469 119.277344 414.132813 117.84375 C 413.40625 116.40625 413.96875 117.445313 413.96875 117.445313 C 413.96875 117.445313 419.839844 117.046875 428.445313 124.285156 L 429.894531 123.253906 C 429.894531 123.253906 421.207031 117.207031 417.265625 115.933594 L 417.105469 116.886719 C 417.105469 116.886719 415.09375 117.042969 414.933594 116.246094 C 414.773438 115.453125 415.179688 113.148438 415.738281 113.066406 C 416.304688 112.988281 417.75 113.148438 417.992188 113.78125 C 418.230469 114.421875 417.75 115.058594 418.878906 114.820313 C 420.003906 114.578125 427.644531 113.386719 436.007813 118.476563 C 436.007813 118.476563 437.371094 114.738281 436.167969 113.867188 C 436.167969 113.867188 424.746094 115.21875 421.289063 112.828125 C 417.832031 110.441406 415.339844 106.144531 415.339844 106.144531 C 415.339844 106.144531 412.921875 105.984375 412.199219 106.226563 "/>
<path style=" stroke:none;fill-rule:nonzero;fill:rgb(97.299194%,92.498779%,10.998535%);fill-opacity:1;" d="M 421.769531 116.011719 C 421.769531 116.011719 428.285156 114.980469 435.363281 120.070313 L 431.101563 122.453125 C 431.101563 122.453125 427.078125 118.878906 421.769531 116.011719 "/>
<path style=" stroke:none;fill-rule:nonzero;fill:rgb(100%,100%,100%);fill-opacity:1;" d="M 431.820313 109.730469 C 431.820313 109.730469 438.097656 109.644531 433.835938 107.417969 C 433.835938 107.417969 438.742188 106.699219 439.140625 108.851563 C 439.546875 110.996094 432.710938 111.636719 431.820313 109.730469 "/>
<path style=" stroke:none;fill-rule:nonzero;fill:rgb(97.299194%,92.498779%,10.998535%);fill-opacity:1;" d="M 561.226563 285.527344 C 561.226563 285.527344 558.933594 299.132813 556.039063 304.625 C 556.039063 304.625 558.691406 303.070313 561.828125 303.191406 C 564.964844 303.3125 567.378906 302.351563 567.378906 302.351563 C 567.378906 302.351563 563.15625 289.347656 563.15625 285.167969 "/>
<path style=" stroke:none;fill-rule:nonzero;fill:rgb(97.299194%,92.498779%,10.998535%);fill-opacity:1;" d="M 569.550781 282.542969 C 569.550781 282.542969 575.097656 291.492188 577.386719 297.101563 C 577.386719 297.101563 582.699219 293.40625 584.628906 289.824219 L 571.84375 280.636719 C 571.84375 280.636719 570.632813 281.945313 569.550781 282.542969 "/>
<path style=" stroke:none;fill-rule:nonzero;fill:rgb(97.299194%,92.498779%,10.998535%);fill-opacity:1;" d="M 575.941406 275.261719 L 589.695313 279.558594 C 589.695313 279.558594 590.539063 271.683594 589.089844 267.027344 L 576.90625 268.820313 C 576.90625 268.820313 577.507813 272.164063 575.941406 275.261719 "/>
<path style=" stroke:none;fill-rule:nonzero;fill:rgb(97.299194%,92.498779%,10.998535%);fill-opacity:1;" d="M 574.496094 262.136719 L 568.945313 253.183594 C 568.945313 253.183594 575.941406 245.78125 578.835938 245.78125 L 586.796875 258.199219 C 586.796875 258.199219 578.835938 258.3125 574.496094 262.136719 "/>
<path style=" stroke:none;fill-rule:nonzero;fill:rgb(97.299194%,92.498779%,10.998535%);fill-opacity:1;" d="M 564.722656 245.429688 L 559.65625 237.546875 C 559.65625 237.546875 564.480469 231.9375 568.34375 230.746094 L 574.375 239.457031 C 574.375 239.457031 569.667969 241.246094 564.722656 245.429688 "/>
<path style=" stroke:none;fill-rule:nonzero;fill:rgb(97.299194%,92.498779%,10.998535%);fill-opacity:1;" d="M 554.46875 229.910156 C 554.46875 229.910156 560.5 224.421875 565.207031 224.421875 L 561.105469 215.226563 C 561.105469 215.226563 553.382813 218.8125 550.367188 222.511719 "/>
<path style=" stroke:none;fill-rule:nonzero;fill:rgb(97.299194%,92.498779%,10.998535%);fill-opacity:1;" d="M 558.8125 207.710938 C 558.8125 207.710938 557.363281 203.535156 558.328125 200.429688 C 558.328125 200.429688 551.574219 197.6875 547.59375 199.835938 C 547.59375 199.835938 545.785156 206.519531 546.988281 212.007813 C 546.988281 212.007813 552.296875 207.953125 558.8125 207.710938 "/>
<path style=" stroke:none;fill-rule:nonzero;fill:rgb(97.299194%,92.498779%,10.998535%);fill-opacity:1;" d="M 559.535156 195.300781 L 561.949219 190.882813 C 561.949219 190.882813 556.640625 184.320313 551.9375 184.320313 L 549.160156 192.316406 C 549.160156 192.316406 554.589844 191.957031 559.535156 195.300781 "/>
<path style=" stroke:none;fill-rule:nonzero;fill:rgb(97.299194%,92.498779%,10.998535%);fill-opacity:1;" d="M 565.328125 185.035156 C 565.328125 185.035156 570.03125 179.070313 570.152344 178.46875 C 570.273438 177.871094 562.550781 171.070313 557.96875 172.023438 L 554.46875 178.113281 C 554.46875 178.113281 562.191406 179.425781 565.328125 185.035156 "/>
<path style=" stroke:none;fill-rule:nonzero;fill:rgb(97.299194%,92.498779%,10.998535%);fill-opacity:1;" d="M 573.410156 173.933594 C 573.410156 173.933594 567.859375 167.246094 562.3125 166.773438 C 562.3125 166.773438 567.859375 160.324219 573.410156 163.074219 C 578.957031 165.820313 573.410156 173.933594 573.410156 173.933594 "/>
<path style=" stroke:none;fill-rule:nonzero;fill:rgb(14.498901%,14.898682%,37.599182%);fill-opacity:1;" d="M 254.371094 499.671875 L 254.371094 513.25 L 257.539063 513.25 C 258.722656 513.25 259.578125 513.183594 260.105469 513.058594 C 260.789063 512.886719 261.363281 512.605469 261.816406 512.203125 C 262.269531 511.800781 262.640625 511.144531 262.925781 510.222656 C 263.214844 509.308594 263.355469 508.054688 263.355469 506.46875 C 263.355469 504.882813 263.214844 503.664063 262.925781 502.820313 C 262.640625 501.972656 262.238281 501.308594 261.722656 500.832031 C 261.207031 500.355469 260.550781 500.035156 259.761719 499.863281 C 259.167969 499.738281 258.007813 499.671875 256.277344 499.671875 Z M 250.128906 496.203125 L 257.882813 496.203125 C 259.628906 496.203125 260.964844 496.335938 261.878906 496.59375 C 263.113281 496.945313 264.171875 497.574219 265.046875 498.480469 C 265.925781 499.386719 266.59375 500.492188 267.054688 501.804688 C 267.511719 503.113281 267.742188 504.730469 267.742188 506.648438 C 267.742188 508.335938 267.527344 509.792969 267.097656 511.015625 C 266.570313 512.507813 265.820313 513.714844 264.847656 514.636719 C 264.109375 515.335938 263.117188 515.882813 261.867188 516.273438 C 260.929688 516.558594 259.679688 516.710938 258.109375 516.710938 L 250.128906 516.710938 "/>
<path style=" stroke:none;fill-rule:nonzero;fill:rgb(14.498901%,14.898682%,37.599182%);fill-opacity:1;" d="M 270.535156 516.707031 L 274.777344 516.707031 L 274.777344 496.203125 L 270.535156 496.203125 Z M 270.535156 516.707031 "/>
<path style=" stroke:none;fill-rule:nonzero;fill:rgb(14.498901%,14.898682%,37.599182%);fill-opacity:1;" d="M 282.398438 504.875 L 285.539063 504.875 C 287.574219 504.875 288.84375 504.789063 289.351563 504.625 C 289.855469 504.453125 290.253906 504.167969 290.539063 503.753906 C 290.824219 503.34375 290.96875 502.832031 290.96875 502.21875 C 290.96875 501.523438 290.78125 500.96875 290.402344 500.542969 C 290.023438 500.125 289.492188 499.855469 288.804688 499.742188 C 288.460938 499.695313 287.429688 499.671875 285.710938 499.671875 L 282.398438 499.671875 Z M 278.15625 516.710938 L 278.15625 496.203125 L 287.085938 496.203125 C 289.332031 496.203125 290.964844 496.386719 291.980469 496.753906 C 292.996094 497.125 293.8125 497.78125 294.425781 498.71875 C 295.035156 499.660156 295.339844 500.742188 295.339844 501.949219 C 295.339844 503.488281 294.878906 504.761719 293.949219 505.761719 C 293.023438 506.765625 291.640625 507.398438 289.796875 507.65625 C 290.710938 508.183594 291.46875 508.757813 292.066406 509.378906 C 292.664063 510.003906 293.46875 511.109375 294.480469 512.707031 L 297.046875 516.710938 L 291.972656 516.710938 L 288.90625 512.246094 C 287.816406 510.652344 287.070313 509.644531 286.671875 509.230469 C 286.269531 508.816406 285.84375 508.53125 285.394531 508.375 C 284.945313 508.226563 284.234375 508.148438 283.257813 508.148438 L 282.398438 508.148438 L 282.398438 516.710938 "/>
<path style=" stroke:none;fill-rule:nonzero;fill:rgb(14.498901%,14.898682%,37.599182%);fill-opacity:1;" d="M 309.800781 508.597656 L 306.90625 500.984375 L 304.066406 508.597656 Z M 317.609375 516.707031 L 312.996094 516.707031 L 311.160156 512.046875 L 302.765625 512.046875 L 301.03125 516.707031 L 296.53125 516.707031 L 304.714844 496.203125 L 309.199219 496.203125 "/>
<path style=" stroke:none;fill-rule:nonzero;fill:rgb(14.498901%,14.898682%,37.599182%);fill-opacity:1;" d="M 326.769531 496.203125 L 330.996094 496.203125 L 330.996094 509.179688 C 330.996094 510.878906 330.839844 512.1875 330.539063 513.097656 C 330.125 514.292969 329.378906 515.246094 328.300781 515.976563 C 327.222656 516.699219 325.796875 517.054688 324.027344 517.054688 C 321.957031 517.054688 320.359375 516.488281 319.242188 515.359375 C 318.125 514.226563 317.5625 512.5625 317.550781 510.371094 L 321.550781 509.925781 C 321.597656 511.101563 321.773438 511.925781 322.078125 512.414063 C 322.539063 513.152344 323.234375 513.515625 324.171875 513.515625 C 325.121094 513.515625 325.789063 513.257813 326.179688 512.726563 C 326.570313 512.203125 326.769531 511.105469 326.769531 509.445313 "/>
<path style=" stroke:none;fill-rule:nonzero;fill:rgb(14.498901%,14.898682%,37.599182%);fill-opacity:1;" d="M 345.972656 508.597656 L 343.074219 500.984375 L 340.238281 508.597656 Z M 353.78125 516.707031 L 349.164063 516.707031 L 347.332031 512.046875 L 338.933594 512.046875 L 337.199219 516.707031 L 332.699219 516.707031 L 340.882813 496.203125 L 345.367188 496.203125 "/>
<path style=" stroke:none;fill-rule:nonzero;fill:rgb(14.498901%,14.898682%,37.599182%);fill-opacity:1;" d="M 67.074219 458.699219 L 61.320313 439.019531 L 65.390625 437.828125 L 67.945313 446.570313 L 73.617188 435.421875 L 79.089844 433.824219 L 73.738281 443.707031 L 85.257813 453.382813 L 79.988281 454.921875 L 71.746094 447.308594 L 69.40625 451.5625 L 71.144531 457.507813 "/>
<path style=" stroke:none;fill-rule:nonzero;fill:rgb(14.498901%,14.898682%,37.599182%);fill-opacity:1;" d="M 97.390625 441.59375 L 92.476563 435.109375 L 91.886719 443.207031 Z M 107.164063 447.191406 L 102.734375 448.484375 L 99.667969 444.527344 L 91.605469 446.882813 L 91.25 451.84375 L 86.929688 453.105469 L 89.027344 431.132813 L 93.335938 429.867188 "/>
<path style=" stroke:none;fill-rule:nonzero;fill:rgb(14.498901%,14.898682%,37.599182%);fill-opacity:1;" d="M 148.578125 429.753906 L 145.023438 422.429688 L 142.867188 430.261719 Z M 157.070313 437.148438 L 152.472656 437.558594 L 150.238281 433.078125 L 141.871094 433.8125 L 140.550781 438.605469 L 136.070313 439.003906 L 142.421875 417.855469 L 146.890625 417.464844 "/>
<path style=" stroke:none;fill-rule:nonzero;fill:rgb(14.498901%,14.898682%,37.599182%);fill-opacity:1;" d="M 447.792969 429.195313 L 444.839844 421.613281 L 442.0625 429.242188 Z M 455.667969 437.25 L 451.050781 437.28125 L 449.179688 432.644531 L 440.785156 432.710938 L 439.085938 437.382813 L 434.585938 437.414063 L 442.609375 416.847656 L 447.09375 416.808594 "/>
<path style=" stroke:none;fill-rule:nonzero;fill:rgb(14.498901%,14.898682%,37.599182%);fill-opacity:1;" d="M 486.757813 435.019531 L 486.074219 426.90625 L 481.25 433.4375 Z M 492.03125 444.972656 L 487.59375 443.695313 L 487.113281 438.714844 L 479.042969 436.398438 L 476.09375 440.398438 L 471.765625 439.15625 L 485.285156 421.707031 L 489.597656 422.941406 "/>
<path style=" stroke:none;fill-rule:nonzero;fill:rgb(14.498901%,14.898682%,37.599182%);fill-opacity:1;" d="M 540.703125 451.886719 L 540.019531 443.773438 L 535.195313 450.308594 Z M 545.976563 461.835938 L 541.539063 460.566406 L 541.0625 455.582031 L 532.988281 453.269531 L 530.039063 457.269531 L 525.710938 456.027344 L 539.230469 438.574219 L 543.542969 439.808594 "/>
<path style=" stroke:none;fill-rule:nonzero;fill:rgb(14.498901%,14.898682%,37.599182%);fill-opacity:1;" d="M 159.566406 437.078125 L 159.601563 416.570313 L 165.949219 416.582031 L 169.738281 430.574219 L 173.527344 416.59375 L 179.894531 416.605469 L 179.859375 437.109375 L 175.921875 437.105469 L 175.945313 420.960938 L 171.75 437.09375 L 167.664063 437.089844 L 163.535156 420.945313 L 163.507813 437.082031 "/>
<path style=" stroke:none;fill-rule:nonzero;fill:rgb(14.498901%,14.898682%,37.599182%);fill-opacity:1;" d="M 413.003906 439.449219 L 411.210938 419.027344 L 417.53125 418.46875 L 422.554688 432.070313 L 425.085938 417.808594 L 431.425781 417.25 L 433.21875 437.671875 L 429.289063 438.023438 L 427.878906 421.945313 L 425.140625 438.386719 L 421.070313 438.742188 L 415.515625 423.03125 L 416.929688 439.109375 "/>
<path style=" stroke:none;fill-rule:nonzero;fill:rgb(14.498901%,14.898682%,37.599182%);fill-opacity:1;" d="M 104.460938 439.847656 L 108.378906 438.496094 C 108.9375 439.753906 109.664063 440.597656 110.550781 441.03125 C 111.4375 441.472656 112.507813 441.539063 113.761719 441.238281 C 115.089844 440.910156 116.023438 440.398438 116.5625 439.6875 C 117.105469 438.976563 117.285156 438.253906 117.105469 437.511719 C 116.992188 437.042969 116.753906 436.679688 116.390625 436.417969 C 116.027344 436.15625 115.464844 435.984375 114.699219 435.914063 C 114.175781 435.863281 113.003906 435.84375 111.1875 435.84375 C 108.847656 435.84375 107.136719 435.5625 106.058594 435 C 104.539063 434.210938 103.589844 433.023438 103.203125 431.445313 C 102.960938 430.429688 103.023438 429.410156 103.398438 428.386719 C 103.773438 427.359375 104.460938 426.476563 105.460938 425.75 C 106.453125 425.015625 107.738281 424.460938 109.308594 424.078125 C 111.871094 423.460938 113.933594 423.535156 115.492188 424.320313 C 117.054688 425.101563 118.089844 426.40625 118.597656 428.222656 L 114.519531 429.394531 C 114.09375 428.414063 113.535156 427.765625 112.847656 427.460938 C 112.160156 427.152344 111.234375 427.140625 110.074219 427.421875 C 108.878906 427.710938 107.996094 428.183594 107.4375 428.820313 C 107.074219 429.234375 106.953125 429.703125 107.078125 430.214844 C 107.195313 430.691406 107.496094 431.042969 107.988281 431.28125 C 108.609375 431.578125 109.980469 431.714844 112.097656 431.695313 C 114.214844 431.667969 115.8125 431.789063 116.894531 432.046875 C 117.976563 432.3125 118.894531 432.804688 119.644531 433.527344 C 120.394531 434.253906 120.921875 435.242188 121.226563 436.503906 C 121.503906 437.644531 121.4375 438.792969 121.03125 439.945313 C 120.621094 441.105469 119.882813 442.0625 118.808594 442.835938 C 117.738281 443.613281 116.316406 444.214844 114.542969 444.644531 C 111.960938 445.269531 109.839844 445.167969 108.175781 444.335938 C 106.507813 443.507813 105.269531 442.015625 104.460938 439.847656 "/>
<path style=" stroke:none;fill-rule:nonzero;fill:rgb(14.498901%,14.898682%,37.599182%);fill-opacity:1;" d="M 504.964844 442.410156 L 509.003906 443.34375 C 508.8125 444.707031 508.976563 445.804688 509.496094 446.648438 C 510.019531 447.484375 510.890625 448.113281 512.113281 448.515625 C 513.410156 448.953125 514.476563 449.007813 515.3125 448.691406 C 516.148438 448.375 516.6875 447.855469 516.921875 447.136719 C 517.074219 446.679688 517.066406 446.246094 516.898438 445.824219 C 516.730469 445.410156 516.339844 444.96875 515.730469 444.503906 C 515.3125 444.1875 514.328125 443.546875 512.789063 442.582031 C 510.804688 441.339844 509.503906 440.199219 508.886719 439.144531 C 508.019531 437.667969 507.839844 436.164063 508.355469 434.625 C 508.683594 433.632813 509.277344 432.796875 510.140625 432.128906 C 511.003906 431.457031 512.054688 431.078125 513.285156 430.984375 C 514.519531 430.894531 515.902344 431.105469 517.433594 431.613281 C 519.9375 432.445313 521.640625 433.609375 522.550781 435.097656 C 523.460938 436.585938 523.648438 438.242188 523.117188 440.046875 L 519.035156 438.882813 C 519.195313 437.820313 519.0625 436.984375 518.644531 436.355469 C 518.222656 435.730469 517.445313 435.230469 516.3125 434.851563 C 515.140625 434.464844 514.148438 434.390625 513.332031 434.640625 C 512.804688 434.800781 512.457031 435.132813 512.289063 435.636719 C 512.136719 436.097656 512.207031 436.558594 512.496094 437.015625 C 512.867188 437.601563 513.953125 438.445313 515.761719 439.550781 C 517.570313 440.652344 518.863281 441.601563 519.640625 442.394531 C 520.421875 443.183594 520.933594 444.089844 521.1875 445.101563 C 521.4375 446.117188 521.359375 447.238281 520.953125 448.46875 C 520.582031 449.582031 519.917969 450.519531 518.957031 451.28125 C 518 452.046875 516.863281 452.464844 515.542969 452.554688 C 514.226563 452.640625 512.703125 452.398438 510.972656 451.828125 C 508.449219 450.980469 506.703125 449.773438 505.730469 448.1875 C 504.757813 446.601563 504.503906 444.671875 504.964844 442.410156 "/>
<path style=" stroke:none;fill-rule:nonzero;fill:rgb(14.498901%,14.898682%,37.599182%);fill-opacity:1;" d="M 456.921875 437.664063 L 458.988281 417.425781 L 463.210938 417.863281 L 461.492188 434.65625 L 471.984375 435.726563 L 471.632813 439.164063 "/>
<path style=" stroke:none;fill-rule:nonzero;fill:rgb(14.498901%,14.898682%,37.599182%);fill-opacity:1;" d="M 493.847656 445.449219 L 496.441406 437.222656 L 492.675781 423.582031 L 497.414063 425.074219 L 499.691406 434.304688 L 506.753906 428.019531 L 511.414063 429.492188 L 500.464844 438.515625 L 497.878906 446.722656 "/>
<path style=" stroke:none;fill-rule:nonzero;fill:rgb(14.498901%,14.898682%,37.599182%);fill-opacity:1;" d="M 520.605469 454.253906 L 526.773438 434.699219 L 530.816406 435.976563 L 524.648438 455.53125 Z M 520.605469 454.253906 "/>
<path style=" stroke:none;fill-rule:nonzero;fill:rgb(14.498901%,14.898682%,37.599182%);fill-opacity:1;" d="M 128.625 440.542969 L 126.214844 423.675781 L 120.042969 424.558594 L 119.554688 421.121094 L 136.082031 418.761719 L 136.574219 422.199219 L 130.414063 423.074219 L 132.824219 439.941406 "/>
</g>
</svg>
